<?xml version="1.0" encoding="UTF-8"?>
<!-- Generator: Adobe Illustrator 27.2.0, SVG Export Plug-In . SVG Version: 6.00 Build 0)  -->
<svg version="1.1" id="Layer_1" xmlns="http://www.w3.org/2000/svg" xmlns:xlink="http://www.w3.org/1999/xlink" x="0px" y="0px" viewBox="0 0 90 90" style="enable-background:new 0 0 90 90;" xml:space="preserve">
<style type="text/css">
	.st0{display:none;fill:#EC008C;}
	.st1{display:none;fill:#FFFFFF;}
	.st2{fill:#EC008C;}
	.st3{fill:#FFFFFF;}
	.st4{fill:#545456;}
	.st5{fill:url(#SVGID_1_);}
	.st6{fill:url(#SVGID_00000109734921953710199450000004872506662753169800_);}
	.st7{fill:url(#SVGID_00000080177445375731748500000009032660283973605054_);}
	.st8{fill:url(#SVGID_00000088821675527989527380000009246325198132620184_);}
	.st9{fill:url(#SVGID_00000160881463009965901410000010303478914712555931_);}
	.st10{fill:url(#SVGID_00000181797580181337785730000014927370017728343170_);}
	.st11{fill:url(#SVGID_00000019669907755674747030000007843800725307277990_);}
	.st12{fill:#FFFFFF;stroke:#58595B;stroke-miterlimit:10;}
	.st13{fill:url(#SVGID_00000087388720512276894310000012244997786983133328_);}
	.st14{fill:url(#SVGID_00000022527140216251864620000005042255969941086143_);}
	.st15{fill:url(#SVGID_00000135650420249723127970000003929628478860244910_);}
	.st16{fill:url(#SVGID_00000030474246160125109480000012224006756322336403_);}
	.st17{fill:url(#SVGID_00000107553747314255502580000002721258296489017004_);}
</style>
<g id="Contour_M_00000156580926319182127510000004174941278274516359_">
	<path class="st0" d="M45-21.7c-17,0-26.9-8.1-32.2-14.9C-2.4-55.9,4-86.4,5.5-92.3c0.2-0.8,0.4-1.5,0.7-2.3   c3.1-8.4,11-13.8,20-13.8c5.1,0,10.6,1.9,16.3,5.7c0.8,0,1.7-0.1,2.5-0.1s1.7,0,2.5,0.1c5.7-3.8,11.2-5.7,16.3-5.7   c9,0,16.9,5.4,20,13.8c0.3,0.8,0.5,1.5,0.7,2.2c1.4,5.9,7.9,36.4-7.3,55.7C71.9-29.7,62-21.7,45-21.7z"/>
	<path class="st1" d="M45-23.7c-16.2,0-25.6-7.7-30.6-14.1C-0.3-56.4,6-86,7.4-91.8c0.2-0.7,0.4-1.4,0.6-2   c2.8-7.6,10-12.5,18.1-12.5c4.9,0,10.2,1.9,15.8,5.8c1-0.1,2.1-0.1,3.1-0.1s2,0,3.1,0.1c5.6-3.8,10.9-5.8,15.8-5.8   c8.2,0,15.3,4.9,18.2,12.5c0.2,0.7,0.5,1.4,0.6,2c1.4,5.7,7.7,35.4-7,54C70.6-31.3,61.2-23.7,45-23.7z"/>
	<path class="st2" d="M45-24.7c-15.8,0-24.9-7.5-29.9-13.7C0.8-56.7,7-85.9,8.4-91.6c0.2-0.7,0.4-1.3,0.6-1.9   c2.7-7.2,9.4-11.9,17.2-11.9c4.8,0,10,1.9,15.5,5.8c1.1-0.1,2.2-0.1,3.3-0.1s2.2,0,3.3,0.1c5.5-3.8,10.7-5.8,15.5-5.8   c7.8,0,14.5,4.7,17.2,11.9c0.2,0.6,0.4,1.3,0.6,1.9c1.4,5.7,7.6,34.9-6.8,53.2C69.9-32.1,60.8-24.7,45-24.7z"/>
	<path class="st3" d="M45-26.7c-15,0-23.6-7-28.3-12.9C2.9-57.2,9-85.6,10.3-91.1c0.1-0.6,0.3-1.2,0.5-1.7   c2.4-6.4,8.4-10.6,15.3-10.6c4.5,0,9.5,2,14.9,5.8c1.3-0.1,2.6-0.2,3.9-0.2s2.6,0.1,3.9,0.2c5.4-3.9,10.4-5.8,14.9-5.8   c6.9,0,12.9,4.1,15.3,10.6c0.2,0.6,0.4,1.1,0.5,1.7c1.3,5.5,7.4,33.9-6.4,51.5C68.6-33.7,60-26.7,45-26.7z"/>
	<path class="st0" d="M45-27.7c-14.6,0-23-6.8-27.5-12.6C4-57.4,10-85.4,11.3-90.8c0.1-0.5,0.3-1.1,0.5-1.6c2.2-6,7.9-9.9,14.4-9.9   c4.4,0,9.3,2,14.6,5.9c1.4-0.2,2.8-0.2,4.2-0.2s2.8,0.1,4.2,0.2c5.3-3.9,10.2-5.9,14.6-5.9c6.5,0,12.2,3.9,14.4,9.9   c0.2,0.5,0.4,1.1,0.5,1.6c1.3,5.4,7.3,33.4-6.2,50.6C68-34.5,59.6-27.7,45-27.7z"/>
	<path class="st1" d="M45-29.7c-13.8,0-21.7-6.4-25.9-11.8c-12.9-16.5-7.1-43.6-5.8-48.9c0.1-0.5,0.3-0.9,0.4-1.4   c1.9-5.2,6.9-8.6,12.5-8.6c4.1,0,8.9,2,14.1,6c1.6-0.2,3.1-0.3,4.7-0.3s3.2,0.1,4.7,0.3c5.2-4,10-6,14.1-6c5.7,0,10.6,3.4,12.5,8.6   c0.2,0.5,0.3,0.9,0.4,1.4c1.3,5.3,7.1,32.4-5.8,48.9C66.7-36.1,58.8-29.7,45-29.7z"/>
	<path class="st4" d="M45-32.7c-12.6,0-19.7-5.8-23.6-10.6c-12.1-15.4-6.5-41.3-5.3-46.3c0.1-0.3,0.2-0.7,0.3-1   c1.5-4,5.3-6.7,9.7-6.7c4.6,0,9.7,3.3,13.3,6.1c1.8-0.3,3.7-0.5,5.5-0.5c1.9,0,3.7,0.2,5.5,0.5c3.6-2.9,8.7-6.1,13.3-6.1   c4.4,0,8.2,2.6,9.7,6.7c0.1,0.3,0.2,0.7,0.3,1c1.2,5,6.8,30.9-5.3,46.3C64.7-38.5,57.6-32.7,45-32.7z"/>
	<path class="st3" d="M45-35.4c-11.5,0-18-5.2-21.4-9.6c-11.3-14.4-6-39.2-4.8-44c0.1-0.2,0.1-0.5,0.2-0.7c1.1-3,3.9-4.9,7.2-4.9   c4.1,0,9.2,3.6,12.5,6.3c2-0.5,4.1-0.7,6.3-0.7c2.1,0,4.2,0.2,6.3,0.7c3.3-2.8,8.4-6.3,12.5-6.3c3.2,0,6.1,1.9,7.2,4.9   c0.1,0.2,0.2,0.5,0.2,0.7c1.2,4.8,6.5,29.6-4.8,44C63-40.6,56.5-35.4,45-35.4z"/>
	<linearGradient id="SVGID_1_" gradientUnits="userSpaceOnUse" x1="45.0013" y1="-86.2982" x2="45.0013" y2="-42.09">
		<stop offset="0" style="stop-color:#E6E7E8"/>
		<stop offset="1" style="stop-color:#BCBEC0"/>
	</linearGradient>
	<path class="st5" d="M65-87.5c-1.2-3.2-10.9,4.8-12.1,6.4c-2.5-1-5.2-1.5-7.9-1.5s-5.4,0.5-7.9,1.5c-1.3-1.6-10.9-9.5-12.1-6.4   c-3.2,12.9-6.5,45.7,20,45.7S68.2-74.5,65-87.5z"/>
</g>
<g id="Contour_L_00000076579606088977191310000016898842345398532234_">
	<path class="st2" d="M155-21.7c-17,0-26.9-8.1-32.2-14.9c-15.2-19.4-8.8-49.8-7.3-55.7c0.2-0.8,0.4-1.5,0.7-2.3   c3.1-8.4,11-13.8,20-13.8c5.1,0,10.6,1.9,16.3,5.7c0.8,0,1.7-0.1,2.5-0.1s1.7,0,2.5,0.1c5.7-3.8,11.2-5.7,16.3-5.7   c9,0,16.9,5.4,20,13.8c0.3,0.8,0.5,1.5,0.7,2.2c1.4,5.9,7.9,36.4-7.3,55.7C181.9-29.7,172-21.7,155-21.7z"/>
	<path class="st3" d="M155-23.7c-16.2,0-25.6-7.7-30.6-14.1c-14.6-18.7-8.4-48.3-7-54c0.2-0.7,0.4-1.4,0.6-2   c2.8-7.6,10-12.5,18.1-12.5c4.9,0,10.2,1.9,15.8,5.8c1-0.1,2.1-0.1,3.1-0.1s2,0,3.1,0.1c5.6-3.8,10.9-5.8,15.8-5.8   c8.2,0,15.3,4.9,18.2,12.5c0.2,0.7,0.5,1.4,0.6,2c1.4,5.7,7.7,35.4-7,54C180.6-31.3,171.2-23.7,155-23.7z"/>
	<path class="st0" d="M155-24.7c-15.8,0-24.9-7.5-29.9-13.7c-14.4-18.3-8.2-47.5-6.8-53.2c0.2-0.7,0.4-1.3,0.6-1.9   c2.7-7.2,9.4-11.9,17.2-11.9c4.8,0,10,1.9,15.5,5.8c1.1-0.1,2.2-0.1,3.3-0.1s2.2,0,3.3,0.1c5.5-3.8,10.7-5.8,15.5-5.8   c7.8,0,14.5,4.7,17.2,11.9c0.2,0.6,0.4,1.3,0.6,1.9c1.4,5.7,7.6,34.9-6.8,53.2C179.9-32.1,170.8-24.7,155-24.7z"/>
	<path class="st1" d="M155-26.7c-15,0-23.6-7-28.3-12.9c-13.8-17.6-7.8-46-6.4-51.5c0.1-0.6,0.3-1.2,0.5-1.7   c2.4-6.4,8.4-10.6,15.3-10.6c4.5,0,9.5,2,14.9,5.8c1.3-0.1,2.6-0.2,3.9-0.2s2.6,0.1,3.9,0.2c5.4-3.9,10.4-5.8,14.9-5.8   c6.9,0,12.9,4.1,15.3,10.6c0.2,0.6,0.4,1.1,0.5,1.7c1.3,5.5,7.4,33.9-6.4,51.5C178.6-33.7,170-26.7,155-26.7z"/>
	<path class="st0" d="M155-27.7c-14.6,0-23-6.8-27.5-12.6c-13.5-17.2-7.5-45.2-6.2-50.6c0.1-0.5,0.3-1.1,0.5-1.6   c2.2-6,7.9-9.9,14.4-9.9c4.4,0,9.3,2,14.6,5.9c1.4-0.2,2.8-0.2,4.2-0.2s2.8,0.1,4.2,0.2c5.3-3.9,10.2-5.9,14.6-5.9   c6.5,0,12.2,3.9,14.4,9.9c0.2,0.5,0.4,1.1,0.5,1.6c1.3,5.4,7.3,33.4-6.2,50.6C178-34.5,169.6-27.7,155-27.7z"/>
	<path class="st1" d="M155-29.7c-13.8,0-21.7-6.4-25.9-11.8c-12.9-16.5-7.1-43.6-5.8-48.9c0.1-0.5,0.3-0.9,0.4-1.4   c1.9-5.2,6.9-8.6,12.5-8.6c4.1,0,8.9,2,14.1,6c1.6-0.2,3.1-0.3,4.7-0.3s3.2,0.1,4.7,0.3c5.2-4,10-6,14.1-6c5.7,0,10.6,3.4,12.5,8.6   c0.2,0.5,0.3,0.9,0.4,1.4c1.3,5.3,7.1,32.4-5.8,48.9C176.7-36.1,168.8-29.7,155-29.7z"/>
	<path class="st4" d="M155-32.7c-12.6,0-19.7-5.8-23.6-10.6c-12.1-15.4-6.5-41.3-5.3-46.3c0.1-0.3,0.2-0.7,0.3-1   c1.5-4,5.3-6.7,9.7-6.7c4.6,0,9.7,3.3,13.3,6.1c1.8-0.3,3.7-0.5,5.5-0.5c1.9,0,3.7,0.2,5.5,0.5c3.6-2.9,8.7-6.1,13.3-6.1   c4.4,0,8.2,2.6,9.7,6.7c0.1,0.3,0.2,0.7,0.3,1c1.2,5,6.8,30.9-5.3,46.3C174.7-38.5,167.6-32.7,155-32.7z"/>
	<path class="st3" d="M155-35.4c-11.5,0-18-5.2-21.4-9.6c-11.3-14.4-6-39.2-4.8-44c0.1-0.2,0.1-0.5,0.2-0.7c1.1-3,3.9-4.9,7.2-4.9   c4.1,0,9.2,3.6,12.5,6.3c2-0.5,4.1-0.7,6.3-0.7s4.2,0.2,6.3,0.7c3.3-2.8,8.4-6.3,12.5-6.3c3.2,0,6.1,1.9,7.2,4.9   c0.1,0.2,0.2,0.5,0.2,0.7c1.2,4.8,6.5,29.6-4.8,44C173-40.6,166.5-35.4,155-35.4z"/>
	
		<linearGradient id="SVGID_00000066514286720873681620000016985157141605814461_" gradientUnits="userSpaceOnUse" x1="155.0013" y1="-86.2982" x2="155.0013" y2="-42.09">
		<stop offset="0" style="stop-color:#E6E7E8"/>
		<stop offset="1" style="stop-color:#BCBEC0"/>
	</linearGradient>
	<path style="fill:url(#SVGID_00000066514286720873681620000016985157141605814461_);" d="M175-87.5c-1.2-3.2-10.9,4.8-12.1,6.4   c-2.5-1-5.2-1.5-7.9-1.5s-5.4,0.5-7.9,1.5c-1.3-1.6-10.9-9.5-12.1-6.4c-3.2,12.9-6.5,45.7,20,45.7S178.2-74.5,175-87.5z"/>
</g>
<g id="Circle_00000097461800572521822640000016220046562081902007_">
	<circle class="st4" cx="45" cy="45" r="33.5"/>
	<circle class="st3" cx="45" cy="45" r="30.9"/>
	
		<linearGradient id="SVGID_00000138543836288446484240000006976147550170067099_" gradientUnits="userSpaceOnUse" x1="45" y1="-497.1961" x2="45" y2="-545.6464" gradientTransform="matrix(1 0 0 -1 0 -476.6342)">
		<stop offset="0" style="stop-color:#E6E7E8"/>
		<stop offset="1" style="stop-color:#BCBEC0"/>
	</linearGradient>
	<circle style="fill:url(#SVGID_00000138543836288446484240000006976147550170067099_);" cx="45" cy="45" r="25.8"/>
</g>
<g id="Rectangle_00000110442082363649839280000014945912725125624707_">
	<rect x="-97.5" y="12.5" class="st4" width="65" height="65"/>
	<rect x="-95" y="15" class="st3" width="60" height="60"/>
	
		<linearGradient id="SVGID_00000087410773226516416700000003748644018595450017_" gradientUnits="userSpaceOnUse" x1="-65" y1="-497.8944" x2="-65" y2="-544.8985" gradientTransform="matrix(1 0 0 -1 0 -476.6342)">
		<stop offset="0" style="stop-color:#E6E7E8"/>
		<stop offset="1" style="stop-color:#BCBEC0"/>
	</linearGradient>
	<rect x="-90" y="20" style="fill:url(#SVGID_00000087410773226516416700000003748644018595450017_);" width="50" height="50"/>
</g>
<g id="Rounded_corners_00000170242325823965740330000007399113237782263721_">
	<path class="st4" d="M175.5,12.7h-41c-6.6,0-12,5.4-12,12v41c0,6.6,5.4,12,12,12h41c6.6,0,12-5.4,12-12v-41   C187.5,18,182.1,12.7,175.5,12.7z"/>
	<path class="st3" d="M175,15.2h-40c-5.5,0-10,4.5-10,10v40c0,5.5,4.5,10,10,10h40c5.5,0,10-4.5,10-10v-40   C185,19.6,180.5,15.2,175,15.2z"/>
	
		<linearGradient id="SVGID_00000160910585367066478520000010620029014506894750_" gradientUnits="userSpaceOnUse" x1="155" y1="-498.0944" x2="155" y2="-545.0985" gradientTransform="matrix(1 0 0 -1 0 -476.6342)">
		<stop offset="0" style="stop-color:#E6E7E8"/>
		<stop offset="1" style="stop-color:#BCBEC0"/>
	</linearGradient>
	<path style="fill:url(#SVGID_00000160910585367066478520000010620029014506894750_);" d="M174,20.2h-38c-3.3,0-6,2.7-6,6v38   c0,3.3,2.7,6,6,6h38c3.3,0,6-2.7,6-6v-38C180,22.9,177.3,20.2,174,20.2z"/>
</g>
<g id="Kiss_Cut">
	<rect x="-208" y="123.2" class="st4" width="65" height="65"/>
	<rect x="-205.5" y="125.7" class="st3" width="60" height="60"/>
	
		<linearGradient id="SVGID_00000015327248720240844710000001018403704571942574_" gradientUnits="userSpaceOnUse" x1="-175.1569" y1="-608.3613" x2="-175.1569" y2="-655.3655" gradientTransform="matrix(1 0 0 -1 0 -476.6342)">
		<stop offset="0" style="stop-color:#E6E7E8"/>
		<stop offset="1" style="stop-color:#BCBEC0"/>
	</linearGradient>
	
		<rect x="-200.2" y="130.5" style="fill:url(#SVGID_00000015327248720240844710000001018403704571942574_);" width="50" height="50"/>
</g>
<g id="Sticker_Sheets">
	<path class="st4" d="M185.5,122.5h-61c-6.6,0-12,5.4-12,12v41c0,6.6,5.4,12,12,12h61c6.6,0,12-5.4,12-12v-41   C197.5,127.8,192.1,122.5,185.5,122.5z"/>
	<path class="st3" d="M185,125h-60c-5.5,0-10,4.5-10,10v40c0,5.5,4.5,10,10,10h60c5.5,0,10-4.5,10-10v-40   C195,129.4,190.5,125,185,125z"/>
	
		<linearGradient id="SVGID_00000135678286217504470060000006439600214698661796_" gradientUnits="userSpaceOnUse" x1="155" y1="-605.9979" x2="155" y2="-656.7622" gradientTransform="matrix(1 0 0 -1 0 -476.6342)">
		<stop offset="0" style="stop-color:#E6E7E8"/>
		<stop offset="1" style="stop-color:#BCBEC0"/>
	</linearGradient>
	<path style="fill:url(#SVGID_00000135678286217504470060000006439600214698661796_);" d="M186,128h-62c-3.3,0-6,2.7-6,6v42   c0,3.3,2.7,6,6,6h62c3.3,0,6-2.7,6-6v-42C192,130.7,189.3,128,186,128z"/>
	<polygon class="st12" points="169.1,132.4 172.7,139.6 180.8,140.7 174.9,146.4 176.3,154.3 169.1,150.5 161.9,154.3 163.3,146.4    157.4,140.7 165.5,139.6  "/>
	<circle class="st12" cx="132.2" cy="168.6" r="7.2"/>
	<circle class="st12" cx="155" cy="168.6" r="7.2"/>
	<rect x="170.1" y="161.4" class="st12" width="14.5" height="14.5"/>
</g>
<g id="Stickers_on_Sheet_00000168099814601170181600000000734274386245202106_">
	<rect x="-217.5" y="12.6" class="st4" width="85" height="65"/>
	<rect x="-215" y="15.1" class="st3" width="80" height="60"/>
	
		<linearGradient id="SVGID_00000003066665634320519720000016192231225842167476_" gradientUnits="userSpaceOnUse" x1="-175.1" y1="-496.174" x2="-175.1" y2="-546.9384" gradientTransform="matrix(1 0 0 -1 0 -476.6342)">
		<stop offset="0" style="stop-color:#E6E7E8"/>
		<stop offset="1" style="stop-color:#BCBEC0"/>
	</linearGradient>
	
		<rect x="-212.1" y="18.1" style="fill:url(#SVGID_00000003066665634320519720000016192231225842167476_);" width="74" height="54"/>
	<circle class="st12" cx="-200.8" cy="45.2" r="7.2"/>
	<circle class="st12" cx="-183.1" cy="45.2" r="7.2"/>
	<rect x="-172.9" y="38.4" class="st12" width="13.6" height="13.6"/>
	<circle class="st12" cx="-200.8" cy="28" r="7.2"/>
	<circle class="st12" cx="-183.1" cy="28" r="7.2"/>
	<rect x="-172.9" y="21.6" class="st12" width="13.6" height="13.6"/>
	<circle class="st12" cx="-200.8" cy="62" r="7.2"/>
	<circle class="st12" cx="-183.1" cy="62" r="7.2"/>
	<rect x="-173" y="54.6" class="st12" width="13.6" height="13.6"/>
	<rect x="-156.1" y="38.4" class="st12" width="13.6" height="13.6"/>
	<rect x="-156.1" y="21.7" class="st12" width="13.6" height="13.6"/>
	<rect x="-156.1" y="54.7" class="st12" width="13.6" height="13.6"/>
</g>
<path class="st12" d="M145.7,134.2c-0.5-1.4-4.9,2.2-5.5,2.9c-1.1-0.4-2.3-0.7-3.6-0.7s-2.4,0.2-3.6,0.7c-0.6-0.7-5-4.3-5.5-2.9  c-1.4,5.9-2.9,20.7,9,20.7S147.2,140.1,145.7,134.2z"/>
<path class="st12" d="M-162.4,141.1c-0.8-2-6.9,3.1-7.7,4.1c-1.6-0.6-3.3-0.9-5-0.9c-1.7,0-3.4,0.3-5,0.9c-0.8-1-7-6.1-7.7-4.1  c-2,8.3-4.1,29.2,12.8,29.2S-160.4,149.4-162.4,141.1z"/>
<g id="Contour_00000177448052511887202010000014200733847114983301_">
	<path class="st4" d="M-175.1-32.7c-12.6,0-19.7-5.8-23.6-10.6c-12.1-15.4-6.5-41.3-5.3-46.3c0.1-0.3,0.2-0.7,0.3-1   c1.5-4,5.3-6.7,9.7-6.7c4.6,0,9.7,3.3,13.3,6.1c1.8-0.3,3.7-0.5,5.5-0.5c1.9,0,3.7,0.2,5.5,0.5c3.6-2.9,8.7-6.1,13.3-6.1   c4.4,0,8.2,2.6,9.7,6.7c0.1,0.3,0.2,0.7,0.3,1c1.2,5,6.8,30.9-5.3,46.3C-155.3-38.5-162.5-32.7-175.1-32.7z"/>
	<path class="st3" d="M-175.1-35.4c-11.5,0-18-5.2-21.4-9.6c-11.3-14.4-6-39.2-4.8-44c0.1-0.2,0.1-0.5,0.2-0.7   c1.1-3,3.9-4.9,7.2-4.9c4.1,0,9.2,3.6,12.5,6.3c2-0.5,4.1-0.7,6.3-0.7c2.1,0,4.2,0.2,6.3,0.7c3.3-2.8,8.4-6.3,12.5-6.3   c3.2,0,6.1,1.9,7.2,4.9c0.1,0.2,0.2,0.5,0.2,0.7c1.2,4.8,6.5,29.6-4.8,44C-157.1-40.6-163.6-35.4-175.1-35.4z"/>
	
		<linearGradient id="SVGID_00000130611172460291087510000008453576612368321942_" gradientUnits="userSpaceOnUse" x1="-175.0659" y1="-86.2983" x2="-175.0659" y2="-42.0902">
		<stop offset="0" style="stop-color:#E6E7E8"/>
		<stop offset="1" style="stop-color:#BCBEC0"/>
	</linearGradient>
	<path style="fill:url(#SVGID_00000130611172460291087510000008453576612368321942_);" d="M-155.1-87.5c-1.2-3.2-10.9,4.8-12.1,6.4   c-2.5-1-5.2-1.5-7.9-1.5s-5.4,0.5-7.9,1.5c-1.3-1.6-10.9-9.5-12.1-6.4c-3.2,12.9-6.5,45.7,20,45.7S-151.9-74.5-155.1-87.5z"/>
</g>
<g id="Contour_S_00000036226408090625558590000012965411546460788638_">
	<path class="st0" d="M-65-21.7c-17,0-26.9-8.1-32.2-14.9c-15.2-19.4-8.8-49.8-7.3-55.7c0.2-0.8,0.4-1.5,0.7-2.3   c3.1-8.4,11-13.8,20-13.8c5.1,0,10.6,1.9,16.3,5.7c0.8,0,1.7-0.1,2.5-0.1s1.7,0,2.5,0.1c5.7-3.8,11.2-5.7,16.3-5.7   c9,0,16.9,5.4,20,13.8c0.3,0.8,0.5,1.5,0.7,2.2c1.4,5.9,7.9,36.4-7.3,55.7C-38.1-29.7-48-21.7-65-21.7z"/>
	<path class="st1" d="M-65-23.7c-16.2,0-25.6-7.7-30.6-14.1c-14.6-18.7-8.4-48.3-7-54c0.2-0.7,0.4-1.4,0.6-2   c2.8-7.6,10-12.5,18.1-12.5c4.9,0,10.2,1.9,15.8,5.8c1-0.1,2.1-0.1,3.1-0.1c1,0,2,0,3.1,0.1c5.6-3.8,10.9-5.8,15.8-5.8   c8.2,0,15.3,4.9,18.2,12.5c0.2,0.7,0.5,1.4,0.6,2c1.4,5.7,7.7,35.4-7,54C-39.4-31.3-48.8-23.7-65-23.7z"/>
	<path class="st0" d="M-65-24.7c-15.8,0-24.9-7.5-29.9-13.7c-14.4-18.3-8.2-47.5-6.8-53.2c0.2-0.7,0.4-1.3,0.6-1.9   c2.7-7.2,9.4-11.9,17.2-11.9c4.8,0,10,1.9,15.5,5.8c1.1-0.1,2.2-0.1,3.3-0.1c1.1,0,2.2,0,3.3,0.1c5.5-3.8,10.7-5.8,15.5-5.8   c7.8,0,14.5,4.7,17.2,11.9c0.2,0.6,0.4,1.3,0.6,1.9c1.4,5.7,7.6,34.9-6.8,53.2C-40.1-32.1-49.2-24.7-65-24.7z"/>
	<path class="st1" d="M-65-26.7c-15,0-23.6-7-28.3-12.9c-13.8-17.6-7.8-46-6.4-51.5c0.1-0.6,0.3-1.2,0.5-1.7   c2.4-6.4,8.4-10.6,15.3-10.6c4.5,0,9.5,2,14.9,5.8c1.3-0.1,2.6-0.2,3.9-0.2c1.3,0,2.6,0.1,3.9,0.2c5.4-3.9,10.4-5.8,14.9-5.8   c6.9,0,12.9,4.1,15.3,10.6c0.2,0.6,0.4,1.1,0.5,1.7c1.3,5.5,7.4,33.9-6.4,51.5C-41.4-33.7-50-26.7-65-26.7z"/>
	<path class="st2" d="M-65-27.7c-14.6,0-23-6.8-27.5-12.6c-13.5-17.2-7.5-45.2-6.2-50.6c0.1-0.5,0.3-1.1,0.5-1.6   c2.2-6,7.9-9.9,14.4-9.9c4.4,0,9.3,2,14.6,5.9c1.4-0.2,2.8-0.2,4.2-0.2c1.4,0,2.8,0.1,4.2,0.2c5.3-3.9,10.2-5.9,14.6-5.9   c6.5,0,12.2,3.9,14.4,9.9c0.2,0.5,0.4,1.1,0.5,1.6c1.3,5.4,7.3,33.4-6.2,50.6C-42-34.5-50.4-27.7-65-27.7z"/>
	<path class="st3" d="M-65-29.7c-13.8,0-21.7-6.4-25.9-11.8c-12.9-16.5-7.1-43.6-5.8-48.9c0.1-0.5,0.3-0.9,0.4-1.4   c1.9-5.2,6.9-8.6,12.5-8.6c4.1,0,8.9,2,14.1,6c1.6-0.2,3.1-0.3,4.7-0.3c1.6,0,3.2,0.1,4.7,0.3c5.2-4,10-6,14.1-6   c5.7,0,10.6,3.4,12.5,8.6c0.2,0.5,0.3,0.9,0.4,1.4c1.3,5.3,7.1,32.4-5.8,48.9C-43.3-36.1-51.2-29.7-65-29.7z"/>
	<path class="st4" d="M-65-32.7c-12.6,0-19.7-5.8-23.6-10.6c-12.1-15.4-6.5-41.3-5.3-46.3c0.1-0.3,0.2-0.7,0.3-1   c1.5-4,5.3-6.7,9.7-6.7c4.6,0,9.7,3.3,13.3,6.1c1.8-0.3,3.7-0.5,5.5-0.5c1.9,0,3.7,0.2,5.5,0.5c3.6-2.9,8.7-6.1,13.3-6.1   c4.4,0,8.2,2.6,9.7,6.7c0.1,0.3,0.2,0.7,0.3,1c1.2,5,6.8,30.9-5.3,46.3C-45.3-38.5-52.4-32.7-65-32.7z"/>
	<path class="st3" d="M-65-35.4c-11.5,0-18-5.2-21.4-9.6c-11.3-14.4-6-39.2-4.8-44c0.1-0.2,0.1-0.5,0.2-0.7c1.1-3,3.9-4.9,7.2-4.9   c4.1,0,9.2,3.6,12.5,6.3c2-0.5,4.1-0.7,6.3-0.7c2.1,0,4.2,0.2,6.3,0.7c3.3-2.8,8.4-6.3,12.5-6.3c3.2,0,6.1,1.9,7.2,4.9   c0.1,0.2,0.2,0.5,0.2,0.7c1.2,4.8,6.5,29.6-4.8,44C-47-40.6-53.5-35.4-65-35.4z"/>
	
		<linearGradient id="SVGID_00000127027961989205293220000017924283203307251636_" gradientUnits="userSpaceOnUse" x1="-64.9987" y1="-86.2982" x2="-64.9987" y2="-42.09">
		<stop offset="0" style="stop-color:#E6E7E8"/>
		<stop offset="1" style="stop-color:#BCBEC0"/>
	</linearGradient>
	<path style="fill:url(#SVGID_00000127027961989205293220000017924283203307251636_);" d="M-45-87.5c-1.2-3.2-10.9,4.8-12.1,6.4   c-2.5-1-5.2-1.5-7.9-1.5c-2.7,0-5.4,0.5-7.9,1.5c-1.3-1.6-10.9-9.5-12.1-6.4c-3.2,12.9-6.5,45.7,20,45.7S-41.8-74.5-45-87.5z"/>
</g>
<path class="st4" d="M-44.9,122.7h-41c-6.6,0-12,5.4-12,12v41c0,6.6,5.4,12,12,12h41c6.6,0,12-5.4,12-12v-41  C-32.9,128.1-38.2,122.7-44.9,122.7z"/>
<path class="st3" d="M-45.4,125.2h-40c-5.5,0-10,4.5-10,10v40c0,5.5,4.5,10,10,10h40c5.5,0,10-4.5,10-10v-40  C-35.4,129.7-39.8,125.2-45.4,125.2z"/>
<linearGradient id="SVGID_00000062166275085647188680000011438508078611781517_" gradientUnits="userSpaceOnUse" x1="-65.1103" y1="-608.2238" x2="-65.1103" y2="-655.2277" gradientTransform="matrix(1 0 0 -1 0 -476.6342)">
	<stop offset="0" style="stop-color:#E6E7E8"/>
	<stop offset="1" style="stop-color:#BCBEC0"/>
</linearGradient>
<path style="fill:url(#SVGID_00000062166275085647188680000011438508078611781517_);" d="M-46.1,130.3h-38c-3.3,0-6,2.7-6,6v38  c0,3.3,2.7,6,6,6h38c3.3,0,6-2.7,6-6v-38C-40.1,133-42.7,130.3-46.1,130.3z"/>
<path class="st12" d="M-52.3,141c-0.8-2-6.9,3.1-7.7,4.1c-1.6-0.6-3.3-0.9-5-0.9c-1.7,0-3.4,0.3-5,0.9c-0.8-1-7-6.1-7.7-4.1  c-2,8.3-4.1,29.2,12.8,29.2S-50.3,149.2-52.3,141z"/>
<rect x="2.5" y="122.5" class="st4" width="85" height="65"/>
<rect x="5" y="125" class="st3" width="80" height="60"/>
<linearGradient id="SVGID_00000010998650776877628160000002348738282004234166_" gradientUnits="userSpaceOnUse" x1="45" y1="-605.9857" x2="45" y2="-656.7501" gradientTransform="matrix(1 0 0 -1 0 -476.6342)">
	<stop offset="0" style="stop-color:#E6E7E8"/>
	<stop offset="1" style="stop-color:#BCBEC0"/>
</linearGradient>
<rect x="8" y="128" style="fill:url(#SVGID_00000010998650776877628160000002348738282004234166_);" width="74" height="54"/>
<polygon class="st12" points="59.1,131.8 62.7,139 70.8,140.1 65,145.7 66.3,153.7 59.1,149.9 51.9,153.7 53.3,145.7 47.4,140.1   55.5,139 "/>
<circle class="st12" cx="22.3" cy="168" r="7.2"/>
<circle class="st12" cx="45" cy="168" r="7.2"/>
<rect x="60.1" y="160.7" class="st12" width="14.5" height="14.5"/>
<path class="st12" d="M36.2,133.2c-0.5-1.4-4.9,2.2-5.5,2.9c-1.1-0.4-2.3-0.7-3.6-0.7c-1.2,0-2.4,0.2-3.6,0.7  c-0.6-0.7-5-4.3-5.5-2.9c-1.4,5.9-2.9,20.7,9,20.7S37.6,139.1,36.2,133.2z"/>
</svg>