<?xml version="1.0" encoding="UTF-8"?>
<!-- Generator: Adobe Illustrator 27.2.0, SVG Export Plug-In . SVG Version: 6.00 Build 0)  -->
<svg version="1.1" id="Layer_1" xmlns="http://www.w3.org/2000/svg" xmlns:xlink="http://www.w3.org/1999/xlink" x="0px" y="0px" viewBox="0 0 90 90" style="enable-background:new 0 0 90 90;" xml:space="preserve">
<style type="text/css">
	.st0{display:none;fill:#EC008C;}
	.st1{display:none;fill:#FFFFFF;}
	.st2{fill:#EC008C;}
	.st3{fill:#FFFFFF;}
	.st4{fill:#545456;}
	.st5{fill:url(#SVGID_1_);}
	.st6{fill:url(#SVGID_00000112617628880085774570000007857677280730962311_);}
	.st7{fill:url(#SVGID_00000054982777235632687070000009931449550670033586_);}
	.st8{fill:url(#SVGID_00000076604204026738775770000017773540779165187240_);}
	.st9{fill:url(#SVGID_00000005962589197095450460000002156800817256359833_);}
	.st10{fill:url(#SVGID_00000056417292809864352680000017402793122083230887_);}
	.st11{fill:url(#SVGID_00000064337392702203647310000003090228547676843434_);}
	.st12{fill:#FFFFFF;stroke:#58595B;stroke-miterlimit:10;}
	.st13{fill:url(#SVGID_00000167376171638278746950000000815675363168418207_);}
	.st14{fill:url(#SVGID_00000000199817222469316010000002982219715125777827_);}
	.st15{fill:url(#SVGID_00000000195394153788287940000008674422602558625435_);}
	.st16{fill:url(#SVGID_00000129193620061479835610000005444401360291917230_);}
	.st17{fill:url(#SVGID_00000157292645444349890190000014400750324707206304_);}
</style>
<g id="Contour_M_00000156580926319182127510000004174941278274516359_">
	<path class="st0" d="M265,88.3c-17,0-26.9-8.1-32.2-14.9c-15.2-19.4-8.8-49.8-7.3-55.7c0.2-0.8,0.4-1.5,0.7-2.3   c3.1-8.4,11-13.8,20-13.8c5.1,0,10.6,1.9,16.3,5.7c0.8,0,1.7-0.1,2.5-0.1s1.7,0,2.5,0.1c5.7-3.8,11.2-5.7,16.3-5.7   c9,0,16.9,5.4,20,13.8c0.3,0.8,0.5,1.5,0.7,2.2c1.4,5.9,7.9,36.4-7.3,55.7C291.9,80.3,282,88.3,265,88.3z"/>
	<path class="st1" d="M265,86.3c-16.2,0-25.6-7.7-30.6-14.1c-14.6-18.7-8.4-48.3-7-54c0.2-0.7,0.4-1.4,0.6-2   c2.8-7.6,10-12.5,18.1-12.5c4.9,0,10.2,1.9,15.8,5.8c1-0.1,2.1-0.1,3.1-0.1s2,0,3.1,0.1c5.6-3.8,10.9-5.8,15.8-5.8   c8.2,0,15.3,4.9,18.2,12.5c0.2,0.7,0.5,1.4,0.6,2c1.4,5.7,7.7,35.4-7,54C290.6,78.7,281.2,86.3,265,86.3z"/>
	<path class="st2" d="M265,85.3c-15.8,0-24.9-7.5-29.9-13.7c-14.4-18.3-8.2-47.5-6.8-53.2c0.2-0.7,0.4-1.3,0.6-1.9   c2.7-7.2,9.4-11.9,17.2-11.9c4.8,0,10,1.9,15.5,5.8c1.1-0.1,2.2-0.1,3.3-0.1s2.2,0,3.3,0.1c5.5-3.8,10.7-5.8,15.5-5.8   c7.8,0,14.5,4.7,17.2,11.9c0.2,0.6,0.4,1.3,0.6,1.9c1.4,5.7,7.6,34.9-6.8,53.2C289.9,77.9,280.8,85.3,265,85.3z"/>
	<path class="st3" d="M265,83.3c-15,0-23.6-7-28.3-12.9c-13.8-17.6-7.8-46-6.4-51.5c0.1-0.6,0.3-1.2,0.5-1.7   c2.4-6.4,8.4-10.6,15.3-10.6c4.5,0,9.5,2,14.9,5.8c1.3-0.1,2.6-0.2,3.9-0.2s2.6,0.1,3.9,0.2c5.4-3.9,10.4-5.8,14.9-5.8   c6.9,0,12.9,4.1,15.3,10.6c0.2,0.6,0.4,1.1,0.5,1.7c1.3,5.5,7.4,33.9-6.4,51.5C288.6,76.3,280,83.3,265,83.3z"/>
	<path class="st0" d="M265,82.3c-14.6,0-23-6.8-27.5-12.6c-13.5-17.2-7.5-45.2-6.2-50.6c0.1-0.5,0.3-1.1,0.5-1.6   c2.2-6,7.9-9.9,14.4-9.9c4.4,0,9.3,2,14.6,5.9c1.4-0.2,2.8-0.2,4.2-0.2s2.8,0.1,4.2,0.2c5.3-3.9,10.2-5.9,14.6-5.9   c6.5,0,12.2,3.9,14.4,9.9c0.2,0.5,0.4,1.1,0.5,1.6c1.3,5.4,7.3,33.4-6.2,50.6C288,75.5,279.6,82.3,265,82.3z"/>
	<path class="st1" d="M265,80.3c-13.8,0-21.7-6.4-25.9-11.8c-12.9-16.5-7.1-43.6-5.8-48.9c0.1-0.5,0.3-0.9,0.4-1.4   c1.9-5.2,6.9-8.6,12.5-8.6c4.1,0,8.9,2,14.1,6c1.6-0.2,3.1-0.3,4.7-0.3s3.2,0.1,4.7,0.3c5.2-4,10-6,14.1-6c5.7,0,10.6,3.4,12.5,8.6   c0.2,0.5,0.3,0.9,0.4,1.4c1.3,5.3,7.1,32.4-5.8,48.9C286.7,73.9,278.8,80.3,265,80.3z"/>
	<path class="st4" d="M265,77.3c-12.6,0-19.7-5.8-23.6-10.6c-12.1-15.4-6.5-41.3-5.3-46.3c0.1-0.3,0.2-0.7,0.3-1   c1.5-4,5.3-6.7,9.7-6.7c4.6,0,9.7,3.3,13.3,6.1c1.8-0.3,3.7-0.5,5.5-0.5c1.9,0,3.7,0.2,5.5,0.5c3.6-2.9,8.7-6.1,13.3-6.1   c4.4,0,8.2,2.6,9.7,6.7c0.1,0.3,0.2,0.7,0.3,1c1.2,5,6.8,30.9-5.3,46.3C284.7,71.5,277.6,77.3,265,77.3z"/>
	<path class="st3" d="M265,74.6c-11.5,0-18-5.2-21.4-9.6c-11.3-14.4-6-39.2-4.8-44c0.1-0.2,0.1-0.5,0.2-0.7c1.1-3,3.9-4.9,7.2-4.9   c4.1,0,9.2,3.6,12.5,6.3c2-0.5,4.1-0.7,6.3-0.7s4.2,0.2,6.3,0.7c3.3-2.8,8.4-6.3,12.5-6.3c3.2,0,6.1,1.9,7.2,4.9   c0.1,0.2,0.2,0.5,0.2,0.7c1.2,4.8,6.5,29.6-4.8,44C283,69.4,276.5,74.6,265,74.6z"/>
	<linearGradient id="SVGID_1_" gradientUnits="userSpaceOnUse" x1="265.0013" y1="23.7018" x2="265.0013" y2="67.91">
		<stop offset="0" style="stop-color:#E6E7E8"/>
		<stop offset="1" style="stop-color:#BCBEC0"/>
	</linearGradient>
	<path class="st5" d="M285,22.5c-1.2-3.2-10.9,4.8-12.1,6.4c-2.5-1-5.2-1.5-7.9-1.5c-2.7,0-5.4,0.5-7.9,1.5   c-1.3-1.6-10.9-9.5-12.1-6.4c-3.2,12.9-6.5,45.7,20,45.7C291.5,68.2,288.2,35.5,285,22.5z"/>
</g>
<g id="Contour_L_00000076579606088977191310000016898842345398532234_">
	<path class="st2" d="M375,88.3c-17,0-26.9-8.1-32.2-14.9c-15.2-19.4-8.8-49.8-7.3-55.7c0.2-0.8,0.4-1.5,0.7-2.3   c3.1-8.4,11-13.8,20-13.8c5.1,0,10.6,1.9,16.3,5.7c0.8,0,1.7-0.1,2.5-0.1s1.7,0,2.5,0.1c5.7-3.8,11.2-5.7,16.3-5.7   c9,0,16.9,5.4,20,13.8c0.3,0.8,0.5,1.5,0.7,2.2c1.4,5.9,7.9,36.4-7.3,55.7C401.9,80.3,392,88.3,375,88.3z"/>
	<path class="st3" d="M375,86.3c-16.2,0-25.6-7.7-30.6-14.1c-14.6-18.7-8.4-48.3-7-54c0.2-0.7,0.4-1.4,0.6-2   c2.8-7.6,10-12.5,18.1-12.5c4.9,0,10.2,1.9,15.8,5.8c1-0.1,2.1-0.1,3.1-0.1s2,0,3.1,0.1c5.6-3.8,10.9-5.8,15.8-5.8   c8.2,0,15.3,4.9,18.2,12.5c0.2,0.7,0.5,1.4,0.6,2c1.4,5.7,7.7,35.4-7,54C400.6,78.7,391.2,86.3,375,86.3z"/>
	<path class="st0" d="M375,85.3c-15.8,0-24.9-7.5-29.9-13.7c-14.4-18.3-8.2-47.5-6.8-53.2c0.2-0.7,0.4-1.3,0.6-1.9   c2.7-7.2,9.4-11.9,17.2-11.9c4.8,0,10,1.9,15.5,5.8c1.1-0.1,2.2-0.1,3.3-0.1s2.2,0,3.3,0.1c5.5-3.8,10.7-5.8,15.5-5.8   c7.8,0,14.5,4.7,17.2,11.9c0.2,0.6,0.4,1.3,0.6,1.9c1.4,5.7,7.6,34.9-6.8,53.2C399.9,77.9,390.8,85.3,375,85.3z"/>
	<path class="st1" d="M375,83.3c-15,0-23.6-7-28.3-12.9c-13.8-17.6-7.8-46-6.4-51.5c0.1-0.6,0.3-1.2,0.5-1.7   c2.4-6.4,8.4-10.6,15.3-10.6c4.5,0,9.5,2,14.9,5.8c1.3-0.1,2.6-0.2,3.9-0.2s2.6,0.1,3.9,0.2c5.4-3.9,10.4-5.8,14.9-5.8   c6.9,0,12.9,4.1,15.3,10.6c0.2,0.6,0.4,1.1,0.5,1.7c1.3,5.5,7.4,33.9-6.4,51.5C398.6,76.3,390,83.3,375,83.3z"/>
	<path class="st0" d="M375,82.3c-14.6,0-23-6.8-27.5-12.6c-13.5-17.2-7.5-45.2-6.2-50.6c0.1-0.5,0.3-1.1,0.5-1.6   c2.2-6,7.9-9.9,14.4-9.9c4.4,0,9.3,2,14.6,5.9c1.4-0.2,2.8-0.2,4.2-0.2s2.8,0.1,4.2,0.2c5.3-3.9,10.2-5.9,14.6-5.9   c6.5,0,12.2,3.9,14.4,9.9c0.2,0.5,0.4,1.1,0.5,1.6c1.3,5.4,7.3,33.4-6.2,50.6C398,75.5,389.6,82.3,375,82.3z"/>
	<path class="st1" d="M375,80.3c-13.8,0-21.7-6.4-25.9-11.8c-12.9-16.5-7.1-43.6-5.8-48.9c0.1-0.5,0.3-0.9,0.4-1.4   c1.9-5.2,6.9-8.6,12.5-8.6c4.1,0,8.9,2,14.1,6c1.6-0.2,3.1-0.3,4.7-0.3s3.2,0.1,4.7,0.3c5.2-4,10-6,14.1-6c5.7,0,10.6,3.4,12.5,8.6   c0.2,0.5,0.3,0.9,0.4,1.4c1.3,5.3,7.1,32.4-5.8,48.9C396.7,73.9,388.8,80.3,375,80.3z"/>
	<path class="st4" d="M375,77.3c-12.6,0-19.7-5.8-23.6-10.6c-12.1-15.4-6.5-41.3-5.3-46.3c0.1-0.3,0.2-0.7,0.3-1   c1.5-4,5.3-6.7,9.7-6.7c4.6,0,9.7,3.3,13.3,6.1c1.8-0.3,3.7-0.5,5.5-0.5c1.9,0,3.7,0.2,5.5,0.5c3.6-2.9,8.7-6.1,13.3-6.1   c4.4,0,8.2,2.6,9.7,6.7c0.1,0.3,0.2,0.7,0.3,1c1.2,5,6.8,30.9-5.3,46.3C394.7,71.5,387.6,77.3,375,77.3z"/>
	<path class="st3" d="M375,74.6c-11.5,0-18-5.2-21.4-9.6c-11.3-14.4-6-39.2-4.8-44c0.1-0.2,0.1-0.5,0.2-0.7c1.1-3,3.9-4.9,7.2-4.9   c4.1,0,9.2,3.6,12.5,6.3c2-0.5,4.1-0.7,6.3-0.7s4.2,0.2,6.3,0.7c3.3-2.8,8.4-6.3,12.5-6.3c3.2,0,6.1,1.9,7.2,4.9   c0.1,0.2,0.2,0.5,0.2,0.7c1.2,4.8,6.5,29.6-4.8,44C393,69.4,386.5,74.6,375,74.6z"/>
	
		<linearGradient id="SVGID_00000075129246877534092440000010321259961043422098_" gradientUnits="userSpaceOnUse" x1="375.0013" y1="23.7018" x2="375.0013" y2="67.91">
		<stop offset="0" style="stop-color:#E6E7E8"/>
		<stop offset="1" style="stop-color:#BCBEC0"/>
	</linearGradient>
	<path style="fill:url(#SVGID_00000075129246877534092440000010321259961043422098_);" d="M395,22.5c-1.2-3.2-10.9,4.8-12.1,6.4   c-2.5-1-5.2-1.5-7.9-1.5c-2.7,0-5.4,0.5-7.9,1.5c-1.3-1.6-10.9-9.5-12.1-6.4c-3.2,12.9-6.5,45.7,20,45.7   C401.5,68.2,398.2,35.5,395,22.5z"/>
</g>
<g id="Circle_00000097461800572521822640000016220046562081902007_">
	<circle class="st4" cx="265" cy="155" r="34.5"/>
	<circle class="st3" cx="265" cy="155" r="31.8"/>
	
		<linearGradient id="SVGID_00000138560321461351683850000010501831676929851065_" gradientUnits="userSpaceOnUse" x1="265" y1="-386.4666" x2="265" y2="-436.3631" gradientTransform="matrix(1 0 0 -1 0 -256.6342)">
		<stop offset="0" style="stop-color:#E6E7E8"/>
		<stop offset="1" style="stop-color:#BCBEC0"/>
	</linearGradient>
	<circle style="fill:url(#SVGID_00000138560321461351683850000010501831676929851065_);" cx="265" cy="155" r="26.5"/>
</g>
<g id="Rectangle_00000110442082363649839280000014945912725125624707_">
	<rect x="122.5" y="122.5" class="st4" width="65" height="65"/>
	<rect x="125" y="125" class="st3" width="60" height="60"/>
	
		<linearGradient id="SVGID_00000164481727045907384520000017291819628674725016_" gradientUnits="userSpaceOnUse" x1="155" y1="-387.8944" x2="155" y2="-434.8985" gradientTransform="matrix(1 0 0 -1 0 -256.6342)">
		<stop offset="0" style="stop-color:#E6E7E8"/>
		<stop offset="1" style="stop-color:#BCBEC0"/>
	</linearGradient>
	<rect x="130" y="130" style="fill:url(#SVGID_00000164481727045907384520000017291819628674725016_);" width="50" height="50"/>
</g>
<g id="Rounded_corners_00000170242325823965740330000007399113237782263721_">
	<path class="st4" d="M395.5,122.7h-41c-6.6,0-12,5.4-12,12v41c0,6.6,5.4,12,12,12h41c6.6,0,12-5.4,12-12v-41   C407.5,128,402.1,122.7,395.5,122.7z"/>
	<path class="st3" d="M395,125.2h-40c-5.5,0-10,4.5-10,10v40c0,5.5,4.5,10,10,10h40c5.5,0,10-4.5,10-10v-40   C405,129.6,400.5,125.2,395,125.2z"/>
	
		<linearGradient id="SVGID_00000076561975902276404750000006750862846781200046_" gradientUnits="userSpaceOnUse" x1="375" y1="-388.0944" x2="375" y2="-435.0985" gradientTransform="matrix(1 0 0 -1 0 -256.6342)">
		<stop offset="0" style="stop-color:#E6E7E8"/>
		<stop offset="1" style="stop-color:#BCBEC0"/>
	</linearGradient>
	<path style="fill:url(#SVGID_00000076561975902276404750000006750862846781200046_);" d="M394,130.2h-38c-3.3,0-6,2.7-6,6v38   c0,3.3,2.7,6,6,6h38c3.3,0,6-2.7,6-6v-38C400,132.9,397.3,130.2,394,130.2z"/>
</g>
<g id="Kiss_Cut">
	<rect x="14" y="235.2" class="st4" width="65" height="65"/>
	<rect x="16.5" y="237.7" class="st3" width="60" height="60"/>
	
		<linearGradient id="SVGID_00000171679211025386505300000001247250468317441164_" gradientUnits="userSpaceOnUse" x1="46.8431" y1="-500.3614" x2="46.8431" y2="-547.3655" gradientTransform="matrix(1 0 0 -1 0 -256.6342)">
		<stop offset="0" style="stop-color:#E6E7E8"/>
		<stop offset="1" style="stop-color:#BCBEC0"/>
	</linearGradient>
	<rect x="21.8" y="242.5" style="fill:url(#SVGID_00000171679211025386505300000001247250468317441164_);" width="50" height="50"/>
</g>
<g id="Sticker_Sheets">
	<path class="st4" d="M405.5,232.5h-61c-6.6,0-12,5.4-12,12v41c0,6.6,5.4,12,12,12h61c6.6,0,12-5.4,12-12v-41   C417.5,237.8,412.1,232.5,405.5,232.5z"/>
	<path class="st3" d="M405,235h-60c-5.5,0-10,4.5-10,10v40c0,5.5,4.5,10,10,10h60c5.5,0,10-4.5,10-10v-40   C415,239.4,410.5,235,405,235z"/>
	
		<linearGradient id="SVGID_00000034057188074742225930000000911141435978006207_" gradientUnits="userSpaceOnUse" x1="375" y1="-495.9979" x2="375" y2="-546.7622" gradientTransform="matrix(1 0 0 -1 0 -256.6342)">
		<stop offset="0" style="stop-color:#E6E7E8"/>
		<stop offset="1" style="stop-color:#BCBEC0"/>
	</linearGradient>
	<path style="fill:url(#SVGID_00000034057188074742225930000000911141435978006207_);" d="M406,238h-62c-3.3,0-6,2.7-6,6v42   c0,3.3,2.7,6,6,6h62c3.3,0,6-2.7,6-6v-42C412,240.7,409.3,238,406,238z"/>
	<polygon class="st12" points="389.1,243.4 392.7,250.6 400.8,251.7 394.9,257.4 396.3,265.3 389.1,261.5 381.9,265.3 383.3,257.4    377.4,251.7 385.5,250.6  "/>
	<circle class="st12" cx="352.2" cy="279.6" r="7.2"/>
	<circle class="st12" cx="375" cy="279.6" r="7.2"/>
	<rect x="390.1" y="272.4" class="st12" width="14.5" height="14.5"/>
</g>
<g id="Stickers_on_Sheet_00000168099814601170181600000000734274386245202106_">
	<rect x="2.5" y="122.6" class="st4" width="85" height="65"/>
	<rect x="5" y="125.1" class="st3" width="80" height="60"/>
	
		<linearGradient id="SVGID_00000102510792338397865120000016442062440698534839_" gradientUnits="userSpaceOnUse" x1="44.9" y1="-386.174" x2="44.9" y2="-436.9384" gradientTransform="matrix(1 0 0 -1 0 -256.6342)">
		<stop offset="0" style="stop-color:#E6E7E8"/>
		<stop offset="1" style="stop-color:#BCBEC0"/>
	</linearGradient>
	<rect x="7.9" y="128.1" style="fill:url(#SVGID_00000102510792338397865120000016442062440698534839_);" width="74" height="54"/>
	<circle class="st12" cx="19.2" cy="155.2" r="7.2"/>
	<circle class="st12" cx="36.9" cy="155.2" r="7.2"/>
	<rect x="47.1" y="148.4" class="st12" width="13.6" height="13.6"/>
	<circle class="st12" cx="19.2" cy="138" r="7.2"/>
	<circle class="st12" cx="36.9" cy="138" r="7.2"/>
	<rect x="47.1" y="131.6" class="st12" width="13.6" height="13.6"/>
	<circle class="st12" cx="19.2" cy="172" r="7.2"/>
	<circle class="st12" cx="36.9" cy="172" r="7.2"/>
	<rect x="47" y="164.6" class="st12" width="13.6" height="13.6"/>
	<rect x="63.9" y="148.4" class="st12" width="13.6" height="13.6"/>
	<rect x="63.9" y="131.7" class="st12" width="13.6" height="13.6"/>
	<rect x="63.9" y="164.7" class="st12" width="13.6" height="13.6"/>
</g>
<path class="st12" d="M365.7,245.2c-0.5-1.4-4.9,2.2-5.5,2.9c-1.1-0.4-2.3-0.7-3.6-0.7s-2.4,0.2-3.6,0.7c-0.6-0.7-5-4.3-5.5-2.9  c-1.4,5.9-2.9,20.7,9,20.7S367.2,251.1,365.7,245.2z"/>
<path class="st12" d="M59.6,253.1c-0.8-2-6.9,3.1-7.7,4.1c-1.6-0.6-3.3-0.9-5-0.9c-1.7,0-3.4,0.3-5,0.9c-0.8-1-7-6.1-7.7-4.1  c-2,8.3-4.1,29.2,12.8,29.2S61.6,261.4,59.6,253.1z"/>
<g id="Contour_00000177448052511887202010000014200733847114983301_">
	<path class="st4" d="M44.9,77.3c-12.6,0-19.7-5.8-23.6-10.6c-12.1-15.4-6.5-41.3-5.3-46.3c0.1-0.3,0.2-0.7,0.3-1   c1.5-4,5.3-6.7,9.7-6.7c4.6,0,9.7,3.3,13.3,6.1c1.8-0.3,3.7-0.5,5.5-0.5s3.7,0.2,5.5,0.5c3.6-2.9,8.7-6.1,13.3-6.1   c4.4,0,8.2,2.6,9.7,6.7c0.1,0.3,0.2,0.7,0.3,1c1.2,5,6.8,30.9-5.3,46.3C64.7,71.5,57.5,77.3,44.9,77.3z"/>
	<path class="st3" d="M44.9,74.6c-11.5,0-18-5.2-21.4-9.6c-11.3-14.4-6-39.2-4.8-44c0.1-0.2,0.1-0.5,0.2-0.7c1.1-3,3.9-4.9,7.2-4.9   c4.1,0,9.2,3.6,12.5,6.3c2-0.5,4.1-0.7,6.3-0.7s4.2,0.2,6.3,0.7c3.3-2.8,8.4-6.3,12.5-6.3c3.2,0,6.1,1.9,7.2,4.9   c0.1,0.2,0.2,0.5,0.2,0.7c1.2,4.8,6.5,29.6-4.8,44C62.9,69.4,56.4,74.6,44.9,74.6z"/>
	
		<linearGradient id="SVGID_00000013153533785076595520000007104600433642525883_" gradientUnits="userSpaceOnUse" x1="44.9341" y1="23.7017" x2="44.9341" y2="67.9098">
		<stop offset="0" style="stop-color:#E6E7E8"/>
		<stop offset="1" style="stop-color:#BCBEC0"/>
	</linearGradient>
	<path style="fill:url(#SVGID_00000013153533785076595520000007104600433642525883_);" d="M64.9,22.5c-1.2-3.2-10.9,4.8-12.1,6.4   c-2.5-1-5.2-1.5-7.9-1.5s-5.4,0.5-7.9,1.5c-1.3-1.6-10.9-9.5-12.1-6.4c-3.2,12.9-6.5,45.7,20,45.7S68.1,35.5,64.9,22.5z"/>
</g>
<g id="Contour_S_00000036226408090625558590000012965411546460788638_">
	<path class="st0" d="M155,88.3c-17,0-26.9-8.1-32.2-14.9c-15.2-19.4-8.8-49.8-7.3-55.7c0.2-0.8,0.4-1.5,0.7-2.3   c3.1-8.4,11-13.8,20-13.8c5.1,0,10.6,1.9,16.3,5.7c0.8,0,1.7-0.1,2.5-0.1s1.7,0,2.5,0.1c5.7-3.8,11.2-5.7,16.3-5.7   c9,0,16.9,5.4,20,13.8c0.3,0.8,0.5,1.5,0.7,2.2c1.4,5.9,7.9,36.4-7.3,55.7C181.9,80.3,172,88.3,155,88.3z"/>
	<path class="st1" d="M155,86.3c-16.2,0-25.6-7.7-30.6-14.1c-14.6-18.7-8.4-48.3-7-54c0.2-0.7,0.4-1.4,0.6-2   c2.8-7.6,10-12.5,18.1-12.5c4.9,0,10.2,1.9,15.8,5.8c1-0.1,2.1-0.1,3.1-0.1s2,0,3.1,0.1c5.6-3.8,10.9-5.8,15.8-5.8   c8.2,0,15.3,4.9,18.2,12.5c0.2,0.7,0.5,1.4,0.6,2c1.4,5.7,7.7,35.4-7,54C180.6,78.7,171.2,86.3,155,86.3z"/>
	<path class="st0" d="M155,85.3c-15.8,0-24.9-7.5-29.9-13.7c-14.4-18.3-8.2-47.5-6.8-53.2c0.2-0.7,0.4-1.3,0.6-1.9   c2.7-7.2,9.4-11.9,17.2-11.9c4.8,0,10,1.9,15.5,5.8c1.1-0.1,2.2-0.1,3.3-0.1s2.2,0,3.3,0.1c5.5-3.8,10.7-5.8,15.5-5.8   c7.8,0,14.5,4.7,17.2,11.9c0.2,0.6,0.4,1.3,0.6,1.9c1.4,5.7,7.6,34.9-6.8,53.2C179.9,77.9,170.8,85.3,155,85.3z"/>
	<path class="st1" d="M155,83.3c-15,0-23.6-7-28.3-12.9c-13.8-17.6-7.8-46-6.4-51.5c0.1-0.6,0.3-1.2,0.5-1.7   c2.4-6.4,8.4-10.6,15.3-10.6c4.5,0,9.5,2,14.9,5.8c1.3-0.1,2.6-0.2,3.9-0.2s2.6,0.1,3.9,0.2c5.4-3.9,10.4-5.8,14.9-5.8   c6.9,0,12.9,4.1,15.3,10.6c0.2,0.6,0.4,1.1,0.5,1.7c1.3,5.5,7.4,33.9-6.4,51.5C178.6,76.3,170,83.3,155,83.3z"/>
	<path class="st2" d="M155,82.3c-14.6,0-23-6.8-27.5-12.6c-13.5-17.2-7.5-45.2-6.2-50.6c0.1-0.5,0.3-1.1,0.5-1.6   c2.2-6,7.9-9.9,14.4-9.9c4.4,0,9.3,2,14.6,5.9c1.4-0.2,2.8-0.2,4.2-0.2s2.8,0.1,4.2,0.2c5.3-3.9,10.2-5.9,14.6-5.9   c6.5,0,12.2,3.9,14.4,9.9c0.2,0.5,0.4,1.1,0.5,1.6c1.3,5.4,7.3,33.4-6.2,50.6C178,75.5,169.6,82.3,155,82.3z"/>
	<path class="st3" d="M155,80.3c-13.8,0-21.7-6.4-25.9-11.8c-12.9-16.5-7.1-43.6-5.8-48.9c0.1-0.5,0.3-0.9,0.4-1.4   c1.9-5.2,6.9-8.6,12.5-8.6c4.1,0,8.9,2,14.1,6c1.6-0.2,3.1-0.3,4.7-0.3s3.2,0.1,4.7,0.3c5.2-4,10-6,14.1-6c5.7,0,10.6,3.4,12.5,8.6   c0.2,0.5,0.3,0.9,0.4,1.4c1.3,5.3,7.1,32.4-5.8,48.9C176.7,73.9,168.8,80.3,155,80.3z"/>
	<path class="st4" d="M155,77.3c-12.6,0-19.7-5.8-23.6-10.6c-12.1-15.4-6.5-41.3-5.3-46.3c0.1-0.3,0.2-0.7,0.3-1   c1.5-4,5.3-6.7,9.7-6.7c4.6,0,9.7,3.3,13.3,6.1c1.8-0.3,3.7-0.5,5.5-0.5c1.9,0,3.7,0.2,5.5,0.5c3.6-2.9,8.7-6.1,13.3-6.1   c4.4,0,8.2,2.6,9.7,6.7c0.1,0.3,0.2,0.7,0.3,1c1.2,5,6.8,30.9-5.3,46.3C174.7,71.5,167.6,77.3,155,77.3z"/>
	<path class="st3" d="M155,74.6c-11.5,0-18-5.2-21.4-9.6c-11.3-14.4-6-39.2-4.8-44c0.1-0.2,0.1-0.5,0.2-0.7c1.1-3,3.9-4.9,7.2-4.9   c4.1,0,9.2,3.6,12.5,6.3c2-0.5,4.1-0.7,6.3-0.7s4.2,0.2,6.3,0.7c3.3-2.8,8.4-6.3,12.5-6.3c3.2,0,6.1,1.9,7.2,4.9   c0.1,0.2,0.2,0.5,0.2,0.7c1.2,4.8,6.5,29.6-4.8,44C173,69.4,166.5,74.6,155,74.6z"/>
	
		<linearGradient id="SVGID_00000111188151593352707010000013136151642123247256_" gradientUnits="userSpaceOnUse" x1="155.0013" y1="23.7018" x2="155.0013" y2="67.91">
		<stop offset="0" style="stop-color:#E6E7E8"/>
		<stop offset="1" style="stop-color:#BCBEC0"/>
	</linearGradient>
	<path style="fill:url(#SVGID_00000111188151593352707010000013136151642123247256_);" d="M175,22.5c-1.2-3.2-10.9,4.8-12.1,6.4   c-2.5-1-5.2-1.5-7.9-1.5s-5.4,0.5-7.9,1.5c-1.3-1.6-10.9-9.5-12.1-6.4c-3.2,12.9-6.5,45.7,20,45.7S178.2,35.5,175,22.5z"/>
</g>
<path class="st4" d="M176.1,232.7h-41c-6.6,0-12,5.4-12,12v41c0,6.6,5.4,12,12,12h41c6.6,0,12-5.4,12-12v-41  C188.1,238.1,182.8,232.7,176.1,232.7z"/>
<path class="st3" d="M175.6,235.2h-40c-5.5,0-10,4.5-10,10v40c0,5.5,4.5,10,10,10h40c5.5,0,10-4.5,10-10v-40  C185.6,239.7,181.2,235.2,175.6,235.2z"/>
<linearGradient id="SVGID_00000065067802281915273070000000466673051271777687_" gradientUnits="userSpaceOnUse" x1="155.8897" y1="-498.2237" x2="155.8897" y2="-545.2277" gradientTransform="matrix(1 0 0 -1 0 -256.6342)">
	<stop offset="0" style="stop-color:#E6E7E8"/>
	<stop offset="1" style="stop-color:#BCBEC0"/>
</linearGradient>
<path style="fill:url(#SVGID_00000065067802281915273070000000466673051271777687_);" d="M174.9,240.3h-38c-3.3,0-6,2.7-6,6v38  c0,3.3,2.7,6,6,6h38c3.3,0,6-2.7,6-6v-38C180.9,243,178.3,240.3,174.9,240.3z"/>
<path class="st12" d="M168.7,251c-0.8-2-6.9,3.1-7.7,4.1c-1.6-0.6-3.3-0.9-5-0.9c-1.7,0-3.4,0.3-5,0.9c-0.8-1-7-6.1-7.7-4.1  c-2,8.3-4.1,29.2,12.8,29.2S170.7,259.2,168.7,251z"/>
<rect x="222.5" y="232.5" class="st4" width="85" height="65"/>
<rect x="225" y="235" class="st3" width="80" height="60"/>
<linearGradient id="SVGID_00000150782017548398977370000014653980915861332388_" gradientUnits="userSpaceOnUse" x1="265" y1="-495.9857" x2="265" y2="-546.7501" gradientTransform="matrix(1 0 0 -1 0 -256.6342)">
	<stop offset="0" style="stop-color:#E6E7E8"/>
	<stop offset="1" style="stop-color:#BCBEC0"/>
</linearGradient>
<rect x="228" y="238" style="fill:url(#SVGID_00000150782017548398977370000014653980915861332388_);" width="74" height="54"/>
<polygon class="st12" points="279.1,241.8 282.7,249 290.8,250.1 285,255.7 286.3,263.7 279.1,259.9 271.9,263.7 273.3,255.7   267.4,250.1 275.5,249 "/>
<circle class="st12" cx="242.3" cy="278" r="7.2"/>
<circle class="st12" cx="265" cy="278" r="7.2"/>
<rect x="280.1" y="270.7" class="st12" width="14.5" height="14.5"/>
<path class="st12" d="M256.2,243.2c-0.5-1.4-4.9,2.2-5.5,2.9c-1.1-0.4-2.3-0.7-3.6-0.7s-2.4,0.2-3.6,0.7c-0.6-0.7-5-4.3-5.5-2.9  c-1.4,5.9-2.9,20.7,9,20.7C259.1,263.9,257.6,249.1,256.2,243.2z"/>
</svg>