<?xml version="1.0" encoding="UTF-8"?>
<!-- Generator: Adobe Illustrator 27.2.0, SVG Export Plug-In . SVG Version: 6.00 Build 0)  -->
<svg version="1.1" id="Layer_1" xmlns="http://www.w3.org/2000/svg" xmlns:xlink="http://www.w3.org/1999/xlink" x="0px" y="0px" viewBox="0 0 90 90" style="enable-background:new 0 0 90 90;" xml:space="preserve">
<style type="text/css">
	.st0{display:none;fill:#EC008C;}
	.st1{display:none;fill:#FFFFFF;}
	.st2{fill:#EC008C;}
	.st3{fill:#FFFFFF;}
	.st4{fill:#545456;}
	.st5{fill:url(#SVGID_1_);}
	.st6{fill:url(#SVGID_00000100361790593372493910000007644894248939014818_);}
	.st7{fill:url(#SVGID_00000035511114102364320410000005137795130285238705_);}
	.st8{fill:url(#SVGID_00000121996374432097048390000014098254350397541045_);}
	.st9{fill:url(#SVGID_00000039828785784175731050000013239251389341742978_);}
	.st10{fill:url(#SVGID_00000101084280062105395090000000699740219370423737_);}
	.st11{fill:url(#SVGID_00000096760043635888682170000003353308115808060577_);}
	.st12{fill:#FFFFFF;stroke:#58595B;stroke-miterlimit:10;}
	.st13{fill:url(#SVGID_00000152969417254648447020000008917149435068695952_);}
	.st14{fill:url(#SVGID_00000142137046697763951350000011741228985805187490_);}
	.st15{fill:url(#SVGID_00000096032513051170513830000016841645007004865954_);}
	.st16{fill:url(#SVGID_00000173867876803647071870000004526034641987424681_);}
	.st17{fill:url(#SVGID_00000070813780538117198700000014939106104664364451_);}
</style>
<g id="Contour_M_00000156580926319182127510000004174941278274516359_">
	<path class="st0" d="M-65-21.7c-17,0-26.9-8.1-32.2-14.9c-15.2-19.4-8.8-49.8-7.3-55.7c0.2-0.8,0.4-1.5,0.7-2.3   c3.1-8.4,11-13.8,20-13.8c5.1,0,10.6,1.9,16.3,5.7c0.8,0,1.7-0.1,2.5-0.1s1.7,0,2.5,0.1c5.7-3.8,11.2-5.7,16.3-5.7   c9,0,16.9,5.4,20,13.8c0.3,0.8,0.5,1.5,0.7,2.2c1.4,5.9,7.9,36.4-7.3,55.7C-38.1-29.7-48-21.7-65-21.7z"/>
	<path class="st1" d="M-65-23.7c-16.2,0-25.6-7.7-30.6-14.1c-14.6-18.7-8.4-48.3-7-54c0.2-0.7,0.4-1.4,0.6-2   c2.8-7.6,10-12.5,18.1-12.5c4.9,0,10.2,1.9,15.8,5.8c1-0.1,2.1-0.1,3.1-0.1c1,0,2,0,3.1,0.1c5.6-3.8,10.9-5.8,15.8-5.8   c8.2,0,15.3,4.9,18.2,12.5c0.2,0.7,0.5,1.4,0.6,2c1.4,5.7,7.7,35.4-7,54C-39.4-31.3-48.8-23.7-65-23.7z"/>
	<path class="st2" d="M-65-24.7c-15.8,0-24.9-7.5-29.9-13.7c-14.4-18.3-8.2-47.5-6.8-53.2c0.2-0.7,0.4-1.3,0.6-1.9   c2.7-7.2,9.4-11.9,17.2-11.9c4.8,0,10,1.9,15.5,5.8c1.1-0.1,2.2-0.1,3.3-0.1c1.1,0,2.2,0,3.3,0.1c5.5-3.8,10.7-5.8,15.5-5.8   c7.8,0,14.5,4.7,17.2,11.9c0.2,0.6,0.4,1.3,0.6,1.9c1.4,5.7,7.6,34.9-6.8,53.2C-40.1-32.1-49.2-24.7-65-24.7z"/>
	<path class="st3" d="M-65-26.7c-15,0-23.6-7-28.3-12.9c-13.8-17.6-7.8-46-6.4-51.5c0.1-0.6,0.3-1.2,0.5-1.7   c2.4-6.4,8.4-10.6,15.3-10.6c4.5,0,9.5,2,14.9,5.8c1.3-0.1,2.6-0.2,3.9-0.2c1.3,0,2.6,0.1,3.9,0.2c5.4-3.9,10.4-5.8,14.9-5.8   c6.9,0,12.9,4.1,15.3,10.6c0.2,0.6,0.4,1.1,0.5,1.7c1.3,5.5,7.4,33.9-6.4,51.5C-41.4-33.7-50-26.7-65-26.7z"/>
	<path class="st0" d="M-65-27.7c-14.6,0-23-6.8-27.5-12.6c-13.5-17.2-7.5-45.2-6.2-50.6c0.1-0.5,0.3-1.1,0.5-1.6   c2.2-6,7.9-9.9,14.4-9.9c4.4,0,9.3,2,14.6,5.9c1.4-0.2,2.8-0.2,4.2-0.2c1.4,0,2.8,0.1,4.2,0.2c5.3-3.9,10.2-5.9,14.6-5.9   c6.5,0,12.2,3.9,14.4,9.9c0.2,0.5,0.4,1.1,0.5,1.6c1.3,5.4,7.3,33.4-6.2,50.6C-42-34.5-50.4-27.7-65-27.7z"/>
	<path class="st1" d="M-65-29.7c-13.8,0-21.7-6.4-25.9-11.8c-12.9-16.5-7.1-43.6-5.8-48.9c0.1-0.5,0.3-0.9,0.4-1.4   c1.9-5.2,6.9-8.6,12.5-8.6c4.1,0,8.9,2,14.1,6c1.6-0.2,3.1-0.3,4.7-0.3c1.6,0,3.2,0.1,4.7,0.3c5.2-4,10-6,14.1-6   c5.7,0,10.6,3.4,12.5,8.6c0.2,0.5,0.3,0.9,0.4,1.4c1.3,5.3,7.1,32.4-5.8,48.9C-43.3-36.1-51.2-29.7-65-29.7z"/>
	<path class="st4" d="M-65-32.7c-12.6,0-19.7-5.8-23.6-10.6c-12.1-15.4-6.5-41.3-5.3-46.3c0.1-0.3,0.2-0.7,0.3-1   c1.5-4,5.3-6.7,9.7-6.7c4.6,0,9.7,3.3,13.3,6.1c1.8-0.3,3.7-0.5,5.5-0.5c1.9,0,3.7,0.2,5.5,0.5c3.6-2.9,8.7-6.1,13.3-6.1   c4.4,0,8.2,2.6,9.7,6.7c0.1,0.3,0.2,0.7,0.3,1c1.2,5,6.8,30.9-5.3,46.3C-45.3-38.5-52.4-32.7-65-32.7z"/>
	<path class="st3" d="M-65-35.4c-11.5,0-18-5.2-21.4-9.6c-11.3-14.4-6-39.2-4.8-44c0.1-0.2,0.1-0.5,0.2-0.7c1.1-3,3.9-4.9,7.2-4.9   c4.1,0,9.2,3.6,12.5,6.3c2-0.5,4.1-0.7,6.3-0.7c2.1,0,4.2,0.2,6.3,0.7c3.3-2.8,8.4-6.3,12.5-6.3c3.2,0,6.1,1.9,7.2,4.9   c0.1,0.2,0.2,0.5,0.2,0.7c1.2,4.8,6.5,29.6-4.8,44C-47-40.6-53.5-35.4-65-35.4z"/>
	<linearGradient id="SVGID_1_" gradientUnits="userSpaceOnUse" x1="-64.9987" y1="-86.2982" x2="-64.9987" y2="-42.09">
		<stop offset="0" style="stop-color:#E6E7E8"/>
		<stop offset="1" style="stop-color:#BCBEC0"/>
	</linearGradient>
	<path class="st5" d="M-45-87.5c-1.2-3.2-10.9,4.8-12.1,6.4c-2.5-1-5.2-1.5-7.9-1.5c-2.7,0-5.4,0.5-7.9,1.5   c-1.3-1.6-10.9-9.5-12.1-6.4c-3.2,12.9-6.5,45.7,20,45.7S-41.8-74.5-45-87.5z"/>
</g>
<g id="Contour_L_00000076579606088977191310000016898842345398532234_">
	<path class="st2" d="M45-21.7c-17,0-26.9-8.1-32.2-14.9C-2.4-55.9,4-86.4,5.5-92.3c0.2-0.8,0.4-1.5,0.7-2.3   c3.1-8.4,11-13.8,20-13.8c5.1,0,10.6,1.9,16.3,5.7c0.8,0,1.7-0.1,2.5-0.1s1.7,0,2.5,0.1c5.7-3.8,11.2-5.7,16.3-5.7   c9,0,16.9,5.4,20,13.8c0.3,0.8,0.5,1.5,0.7,2.2c1.4,5.9,7.9,36.4-7.3,55.7C71.9-29.7,62-21.7,45-21.7z"/>
	<path class="st3" d="M45-23.7c-16.2,0-25.6-7.7-30.6-14.1C-0.3-56.4,6-86,7.4-91.8c0.2-0.7,0.4-1.4,0.6-2   c2.8-7.6,10-12.5,18.1-12.5c4.9,0,10.2,1.9,15.8,5.8c1-0.1,2.1-0.1,3.1-0.1s2,0,3.1,0.1c5.6-3.8,10.9-5.8,15.8-5.8   c8.2,0,15.3,4.9,18.2,12.5c0.2,0.7,0.5,1.4,0.6,2c1.4,5.7,7.7,35.4-7,54C70.6-31.3,61.2-23.7,45-23.7z"/>
	<path class="st0" d="M45-24.7c-15.8,0-24.9-7.5-29.9-13.7C0.8-56.7,7-85.9,8.4-91.6c0.2-0.7,0.4-1.3,0.6-1.9   c2.7-7.2,9.4-11.9,17.2-11.9c4.8,0,10,1.9,15.5,5.8c1.1-0.1,2.2-0.1,3.3-0.1s2.2,0,3.3,0.1c5.5-3.8,10.7-5.8,15.5-5.8   c7.8,0,14.5,4.7,17.2,11.9c0.2,0.6,0.4,1.3,0.6,1.9c1.4,5.7,7.6,34.9-6.8,53.2C69.9-32.1,60.8-24.7,45-24.7z"/>
	<path class="st1" d="M45-26.7c-15,0-23.6-7-28.3-12.9C2.9-57.2,9-85.6,10.3-91.1c0.1-0.6,0.3-1.2,0.5-1.7   c2.4-6.4,8.4-10.6,15.3-10.6c4.5,0,9.5,2,14.9,5.8c1.3-0.1,2.6-0.2,3.9-0.2s2.6,0.1,3.9,0.2c5.4-3.9,10.4-5.8,14.9-5.8   c6.9,0,12.9,4.1,15.3,10.6c0.2,0.6,0.4,1.1,0.5,1.7c1.3,5.5,7.4,33.9-6.4,51.5C68.6-33.7,60-26.7,45-26.7z"/>
	<path class="st0" d="M45-27.7c-14.6,0-23-6.8-27.5-12.6C4-57.4,10-85.4,11.3-90.8c0.1-0.5,0.3-1.1,0.5-1.6c2.2-6,7.9-9.9,14.4-9.9   c4.4,0,9.3,2,14.6,5.9c1.4-0.2,2.8-0.2,4.2-0.2s2.8,0.1,4.2,0.2c5.3-3.9,10.2-5.9,14.6-5.9c6.5,0,12.2,3.9,14.4,9.9   c0.2,0.5,0.4,1.1,0.5,1.6c1.3,5.4,7.3,33.4-6.2,50.6C68-34.5,59.6-27.7,45-27.7z"/>
	<path class="st1" d="M45-29.7c-13.8,0-21.7-6.4-25.9-11.8c-12.9-16.5-7.1-43.6-5.8-48.9c0.1-0.5,0.3-0.9,0.4-1.4   c1.9-5.2,6.9-8.6,12.5-8.6c4.1,0,8.9,2,14.1,6c1.6-0.2,3.1-0.3,4.7-0.3s3.2,0.1,4.7,0.3c5.2-4,10-6,14.1-6c5.7,0,10.6,3.4,12.5,8.6   c0.2,0.5,0.3,0.9,0.4,1.4c1.3,5.3,7.1,32.4-5.8,48.9C66.7-36.1,58.8-29.7,45-29.7z"/>
	<path class="st4" d="M45-32.7c-12.6,0-19.7-5.8-23.6-10.6c-12.1-15.4-6.5-41.3-5.3-46.3c0.1-0.3,0.2-0.7,0.3-1   c1.5-4,5.3-6.7,9.7-6.7c4.6,0,9.7,3.3,13.3,6.1c1.8-0.3,3.7-0.5,5.5-0.5c1.9,0,3.7,0.2,5.5,0.5c3.6-2.9,8.7-6.1,13.3-6.1   c4.4,0,8.2,2.6,9.7,6.7c0.1,0.3,0.2,0.7,0.3,1c1.2,5,6.8,30.9-5.3,46.3C64.7-38.5,57.6-32.7,45-32.7z"/>
	<path class="st3" d="M45-35.4c-11.5,0-18-5.2-21.4-9.6c-11.3-14.4-6-39.2-4.8-44c0.1-0.2,0.1-0.5,0.2-0.7c1.1-3,3.9-4.9,7.2-4.9   c4.1,0,9.2,3.6,12.5,6.3c2-0.5,4.1-0.7,6.3-0.7c2.1,0,4.2,0.2,6.3,0.7c3.3-2.8,8.4-6.3,12.5-6.3c3.2,0,6.1,1.9,7.2,4.9   c0.1,0.2,0.2,0.5,0.2,0.7c1.2,4.8,6.5,29.6-4.8,44C63-40.6,56.5-35.4,45-35.4z"/>
	
		<linearGradient id="SVGID_00000104684992624252403020000000303805204053544874_" gradientUnits="userSpaceOnUse" x1="45.0013" y1="-86.2982" x2="45.0013" y2="-42.09">
		<stop offset="0" style="stop-color:#E6E7E8"/>
		<stop offset="1" style="stop-color:#BCBEC0"/>
	</linearGradient>
	<path style="fill:url(#SVGID_00000104684992624252403020000000303805204053544874_);" d="M65-87.5c-1.2-3.2-10.9,4.8-12.1,6.4   c-2.5-1-5.2-1.5-7.9-1.5s-5.4,0.5-7.9,1.5c-1.3-1.6-10.9-9.5-12.1-6.4c-3.2,12.9-6.5,45.7,20,45.7S68.2-74.5,65-87.5z"/>
</g>
<g id="Circle_00000097461800572521822640000016220046562081902007_">
	<circle class="st4" cx="-65" cy="45" r="32.5"/>
	<circle class="st3" cx="-65" cy="45" r="30"/>
	
		<linearGradient id="SVGID_00000036238445569429233010000006618680505426221468_" gradientUnits="userSpaceOnUse" x1="-65" y1="-497.9256" x2="-65" y2="-544.9296" gradientTransform="matrix(1 0 0 -1 0 -476.6342)">
		<stop offset="0" style="stop-color:#E6E7E8"/>
		<stop offset="1" style="stop-color:#BCBEC0"/>
	</linearGradient>
	<circle style="fill:url(#SVGID_00000036238445569429233010000006618680505426221468_);" cx="-65" cy="45" r="25"/>
</g>
<g id="Rectangle_00000110442082363649839280000014945912725125624707_">
	<rect x="-207.5" y="12.5" class="st4" width="65" height="65"/>
	<rect x="-205" y="15" class="st3" width="60" height="60"/>
	
		<linearGradient id="SVGID_00000044898975041660786790000013162332138381379731_" gradientUnits="userSpaceOnUse" x1="-175" y1="-497.8944" x2="-175" y2="-544.8985" gradientTransform="matrix(1 0 0 -1 0 -476.6342)">
		<stop offset="0" style="stop-color:#E6E7E8"/>
		<stop offset="1" style="stop-color:#BCBEC0"/>
	</linearGradient>
	<rect x="-200" y="20" style="fill:url(#SVGID_00000044898975041660786790000013162332138381379731_);" width="50" height="50"/>
</g>
<g id="Rounded_corners_00000170242325823965740330000007399113237782263721_">
	<path class="st4" d="M65.5,12.7h-41c-6.6,0-12,5.4-12,12v41c0,6.6,5.4,12,12,12h41c6.6,0,12-5.4,12-12v-41   C77.5,18,72.1,12.7,65.5,12.7z"/>
	<path class="st3" d="M65,15.2H25c-5.5,0-10,4.5-10,10v40c0,5.5,4.5,10,10,10h40c5.5,0,10-4.5,10-10v-40C75,19.6,70.5,15.2,65,15.2z   "/>
	
		<linearGradient id="SVGID_00000155828768049447090530000007203549633314279863_" gradientUnits="userSpaceOnUse" x1="45" y1="-498.0944" x2="45" y2="-545.0985" gradientTransform="matrix(1 0 0 -1 0 -476.6342)">
		<stop offset="0" style="stop-color:#E6E7E8"/>
		<stop offset="1" style="stop-color:#BCBEC0"/>
	</linearGradient>
	<path style="fill:url(#SVGID_00000155828768049447090530000007203549633314279863_);" d="M64,20.2H26c-3.3,0-6,2.7-6,6v38   c0,3.3,2.7,6,6,6h38c3.3,0,6-2.7,6-6v-38C70,22.9,67.3,20.2,64,20.2z"/>
</g>
<g id="Kiss_Cut">
	<rect x="-316" y="125.2" class="st4" width="65" height="65"/>
	<rect x="-313.5" y="127.7" class="st3" width="60" height="60"/>
	
		<linearGradient id="SVGID_00000148657818972759995380000006319683058316036746_" gradientUnits="userSpaceOnUse" x1="-283.1569" y1="-610.3613" x2="-283.1569" y2="-657.3655" gradientTransform="matrix(1 0 0 -1 0 -476.6342)">
		<stop offset="0" style="stop-color:#E6E7E8"/>
		<stop offset="1" style="stop-color:#BCBEC0"/>
	</linearGradient>
	
		<rect x="-308.2" y="132.5" style="fill:url(#SVGID_00000148657818972759995380000006319683058316036746_);" width="50" height="50"/>
</g>
<g id="Sticker_Sheets">
	<path class="st4" d="M75.5,122.5h-61c-6.6,0-12,5.4-12,12v41c0,6.6,5.4,12,12,12h61c6.6,0,12-5.4,12-12v-41   C87.5,127.8,82.1,122.5,75.5,122.5z"/>
	<path class="st3" d="M75,125H15c-5.5,0-10,4.5-10,10v40c0,5.5,4.5,10,10,10h60c5.5,0,10-4.5,10-10v-40C85,129.4,80.5,125,75,125z"/>
	
		<linearGradient id="SVGID_00000080921706919582534850000001810809359242161840_" gradientUnits="userSpaceOnUse" x1="45" y1="-605.9979" x2="45" y2="-656.7622" gradientTransform="matrix(1 0 0 -1 0 -476.6342)">
		<stop offset="0" style="stop-color:#E6E7E8"/>
		<stop offset="1" style="stop-color:#BCBEC0"/>
	</linearGradient>
	<path style="fill:url(#SVGID_00000080921706919582534850000001810809359242161840_);" d="M76,128H14c-3.3,0-6,2.7-6,6v42   c0,3.3,2.7,6,6,6h62c3.3,0,6-2.7,6-6v-42C82,130.7,79.3,128,76,128z"/>
	<polygon class="st12" points="59.1,133.4 62.7,140.6 70.8,141.7 64.9,147.4 66.3,155.3 59.1,151.5 51.9,155.3 53.3,147.4    47.4,141.7 55.5,140.6  "/>
	<circle class="st12" cx="22.2" cy="169.6" r="7.2"/>
	<circle class="st12" cx="45" cy="169.6" r="7.2"/>
	<rect x="60.1" y="162.4" class="st12" width="14.5" height="14.5"/>
</g>
<g id="Stickers_on_Sheet_00000168099814601170181600000000734274386245202106_">
	<rect x="-327.5" y="12.6" class="st4" width="85" height="65"/>
	<rect x="-325" y="15.1" class="st3" width="80" height="60"/>
	
		<linearGradient id="SVGID_00000111904734562726601510000003763689603454790847_" gradientUnits="userSpaceOnUse" x1="-285.1" y1="-496.174" x2="-285.1" y2="-546.9384" gradientTransform="matrix(1 0 0 -1 0 -476.6342)">
		<stop offset="0" style="stop-color:#E6E7E8"/>
		<stop offset="1" style="stop-color:#BCBEC0"/>
	</linearGradient>
	
		<rect x="-322.1" y="18.1" style="fill:url(#SVGID_00000111904734562726601510000003763689603454790847_);" width="74" height="54"/>
	<circle class="st12" cx="-310.8" cy="45.2" r="7.2"/>
	<circle class="st12" cx="-293.1" cy="45.2" r="7.2"/>
	<rect x="-282.9" y="38.4" class="st12" width="13.6" height="13.6"/>
	<circle class="st12" cx="-310.8" cy="28" r="7.2"/>
	<circle class="st12" cx="-293.1" cy="28" r="7.2"/>
	<rect x="-282.9" y="21.6" class="st12" width="13.6" height="13.6"/>
	<circle class="st12" cx="-310.8" cy="62" r="7.2"/>
	<circle class="st12" cx="-293.1" cy="62" r="7.2"/>
	<rect x="-283" y="54.6" class="st12" width="13.6" height="13.6"/>
	<rect x="-266.1" y="38.4" class="st12" width="13.6" height="13.6"/>
	<rect x="-266.1" y="21.7" class="st12" width="13.6" height="13.6"/>
	<rect x="-266.1" y="54.7" class="st12" width="13.6" height="13.6"/>
</g>
<path class="st12" d="M35.7,135.2c-0.5-1.4-4.9,2.2-5.5,2.9c-1.1-0.4-2.3-0.7-3.6-0.7c-1.2,0-2.4,0.2-3.6,0.7  c-0.6-0.7-5-4.3-5.5-2.9c-1.4,5.9-2.9,20.7,9,20.7S37.2,141.1,35.7,135.2z"/>
<path class="st12" d="M-270.4,143.1c-0.8-2-6.9,3.1-7.7,4.1c-1.6-0.6-3.3-0.9-5-0.9s-3.4,0.3-5,0.9c-0.8-1-7-6.1-7.7-4.1  c-2,8.3-4.1,29.2,12.8,29.2S-268.4,151.4-270.4,143.1z"/>
<g id="Contour_00000177448052511887202010000014200733847114983301_">
	<path class="st4" d="M-285.1-32.7c-12.6,0-19.7-5.8-23.6-10.6c-12.1-15.4-6.5-41.3-5.3-46.3c0.1-0.3,0.2-0.7,0.3-1   c1.5-4,5.3-6.7,9.7-6.7c4.6,0,9.7,3.3,13.3,6.1c1.8-0.3,3.7-0.5,5.5-0.5c1.9,0,3.7,0.2,5.5,0.5c3.6-2.9,8.7-6.1,13.3-6.1   c4.4,0,8.2,2.6,9.7,6.7c0.1,0.3,0.2,0.7,0.3,1c1.2,5,6.8,30.9-5.3,46.3C-265.3-38.5-272.5-32.7-285.1-32.7z"/>
	<path class="st3" d="M-285.1-35.4c-11.5,0-18-5.2-21.4-9.6c-11.3-14.4-6-39.2-4.8-44c0.1-0.2,0.1-0.5,0.2-0.7   c1.1-3,3.9-4.9,7.2-4.9c4.1,0,9.2,3.6,12.5,6.3c2-0.5,4.1-0.7,6.3-0.7s4.2,0.2,6.3,0.7c3.3-2.8,8.4-6.3,12.5-6.3   c3.2,0,6.1,1.9,7.2,4.9c0.1,0.2,0.2,0.5,0.2,0.7c1.2,4.8,6.5,29.6-4.8,44C-267.1-40.6-273.6-35.4-285.1-35.4z"/>
	
		<linearGradient id="SVGID_00000018959377858188883070000002066854890655533963_" gradientUnits="userSpaceOnUse" x1="-285.0659" y1="-86.2983" x2="-285.0659" y2="-42.0902">
		<stop offset="0" style="stop-color:#E6E7E8"/>
		<stop offset="1" style="stop-color:#BCBEC0"/>
	</linearGradient>
	<path style="fill:url(#SVGID_00000018959377858188883070000002066854890655533963_);" d="M-265.1-87.5c-1.2-3.2-10.9,4.8-12.1,6.4   c-2.5-1-5.2-1.5-7.9-1.5s-5.4,0.5-7.9,1.5c-1.3-1.6-10.9-9.5-12.1-6.4c-3.2,12.9-6.5,45.7,20,45.7   C-258.6-41.8-261.9-74.5-265.1-87.5z"/>
</g>
<g id="Contour_S_00000036226408090625558590000012965411546460788638_">
	<path class="st0" d="M-175-21.7c-17,0-26.9-8.1-32.2-14.9c-15.2-19.4-8.8-49.8-7.3-55.7c0.2-0.8,0.4-1.5,0.7-2.3   c3.1-8.4,11-13.8,20-13.8c5.1,0,10.6,1.9,16.3,5.7c0.8,0,1.7-0.1,2.5-0.1s1.7,0,2.5,0.1c5.7-3.8,11.2-5.7,16.3-5.7   c9,0,16.9,5.4,20,13.8c0.3,0.8,0.5,1.5,0.7,2.2c1.4,5.9,7.9,36.4-7.3,55.7C-148.1-29.7-158-21.7-175-21.7z"/>
	<path class="st1" d="M-175-23.7c-16.2,0-25.6-7.7-30.6-14.1c-14.6-18.7-8.4-48.3-7-54c0.2-0.7,0.4-1.4,0.6-2   c2.8-7.6,10-12.5,18.1-12.5c4.9,0,10.2,1.9,15.8,5.8c1-0.1,2.1-0.1,3.1-0.1s2,0,3.1,0.1c5.6-3.8,10.9-5.8,15.8-5.8   c8.2,0,15.3,4.9,18.2,12.5c0.2,0.7,0.5,1.4,0.6,2c1.4,5.7,7.7,35.4-7,54C-149.4-31.3-158.8-23.7-175-23.7z"/>
	<path class="st0" d="M-175-24.7c-15.8,0-24.9-7.5-29.9-13.7c-14.4-18.3-8.2-47.5-6.8-53.2c0.2-0.7,0.4-1.3,0.6-1.9   c2.7-7.2,9.4-11.9,17.2-11.9c4.8,0,10,1.9,15.5,5.8c1.1-0.1,2.2-0.1,3.3-0.1s2.2,0,3.3,0.1c5.5-3.8,10.7-5.8,15.5-5.8   c7.8,0,14.5,4.7,17.2,11.9c0.2,0.6,0.4,1.3,0.6,1.9c1.4,5.7,7.6,34.9-6.8,53.2C-150.1-32.1-159.2-24.7-175-24.7z"/>
	<path class="st1" d="M-175-26.7c-15,0-23.6-7-28.3-12.9c-13.8-17.6-7.8-46-6.4-51.5c0.1-0.6,0.3-1.2,0.5-1.7   c2.4-6.4,8.4-10.6,15.3-10.6c4.5,0,9.5,2,14.9,5.8c1.3-0.1,2.6-0.2,3.9-0.2s2.6,0.1,3.9,0.2c5.4-3.9,10.4-5.8,14.9-5.8   c6.9,0,12.9,4.1,15.3,10.6c0.2,0.6,0.4,1.1,0.5,1.7c1.3,5.5,7.4,33.9-6.4,51.5C-151.4-33.7-160-26.7-175-26.7z"/>
	<path class="st2" d="M-175-27.7c-14.6,0-23-6.8-27.5-12.6c-13.5-17.2-7.5-45.2-6.2-50.6c0.1-0.5,0.3-1.1,0.5-1.6   c2.2-6,7.9-9.9,14.4-9.9c4.4,0,9.3,2,14.6,5.9c1.4-0.2,2.8-0.2,4.2-0.2s2.8,0.1,4.2,0.2c5.3-3.9,10.2-5.9,14.6-5.9   c6.5,0,12.2,3.9,14.4,9.9c0.2,0.5,0.4,1.1,0.5,1.6c1.3,5.4,7.3,33.4-6.2,50.6C-152-34.5-160.4-27.7-175-27.7z"/>
	<path class="st3" d="M-175-29.7c-13.8,0-21.7-6.4-25.9-11.8c-12.9-16.5-7.1-43.6-5.8-48.9c0.1-0.5,0.3-0.9,0.4-1.4   c1.9-5.2,6.9-8.6,12.5-8.6c4.1,0,8.9,2,14.1,6c1.6-0.2,3.1-0.3,4.7-0.3s3.2,0.1,4.7,0.3c5.2-4,10-6,14.1-6c5.7,0,10.6,3.4,12.5,8.6   c0.2,0.5,0.3,0.9,0.4,1.4c1.3,5.3,7.1,32.4-5.8,48.9C-153.3-36.1-161.2-29.7-175-29.7z"/>
	<path class="st4" d="M-175-32.7c-12.6,0-19.7-5.8-23.6-10.6c-12.1-15.4-6.5-41.3-5.3-46.3c0.1-0.3,0.2-0.7,0.3-1   c1.5-4,5.3-6.7,9.7-6.7c4.6,0,9.7,3.3,13.3,6.1c1.8-0.3,3.7-0.5,5.5-0.5c1.9,0,3.7,0.2,5.5,0.5c3.6-2.9,8.7-6.1,13.3-6.1   c4.4,0,8.2,2.6,9.7,6.7c0.1,0.3,0.2,0.7,0.3,1c1.2,5,6.8,30.9-5.3,46.3C-155.3-38.5-162.4-32.7-175-32.7z"/>
	<path class="st3" d="M-175-35.4c-11.5,0-18-5.2-21.4-9.6c-11.3-14.4-6-39.2-4.8-44c0.1-0.2,0.1-0.5,0.2-0.7c1.1-3,3.9-4.9,7.2-4.9   c4.1,0,9.2,3.6,12.5,6.3c2-0.5,4.1-0.7,6.3-0.7s4.2,0.2,6.3,0.7c3.3-2.8,8.4-6.3,12.5-6.3c3.2,0,6.1,1.9,7.2,4.9   c0.1,0.2,0.2,0.5,0.2,0.7c1.2,4.8,6.5,29.6-4.8,44C-157-40.6-163.5-35.4-175-35.4z"/>
	
		<linearGradient id="SVGID_00000000942914190812655240000008191901052966237104_" gradientUnits="userSpaceOnUse" x1="-174.9987" y1="-86.2982" x2="-174.9987" y2="-42.09">
		<stop offset="0" style="stop-color:#E6E7E8"/>
		<stop offset="1" style="stop-color:#BCBEC0"/>
	</linearGradient>
	<path style="fill:url(#SVGID_00000000942914190812655240000008191901052966237104_);" d="M-155-87.5c-1.2-3.2-10.9,4.8-12.1,6.4   c-2.5-1-5.2-1.5-7.9-1.5s-5.4,0.5-7.9,1.5c-1.3-1.6-10.9-9.5-12.1-6.4c-3.2,12.9-6.5,45.7,20,45.7S-151.8-74.5-155-87.5z"/>
</g>
<path class="st4" d="M-153.9,122.7h-41c-6.6,0-12,5.4-12,12v41c0,6.6,5.4,12,12,12h41c6.6,0,12-5.4,12-12v-41  C-141.9,128.1-147.2,122.7-153.9,122.7z"/>
<path class="st3" d="M-154.4,125.2h-40c-5.5,0-10,4.5-10,10v40c0,5.5,4.5,10,10,10h40c5.5,0,10-4.5,10-10v-40  C-144.4,129.7-148.8,125.2-154.4,125.2z"/>
<linearGradient id="SVGID_00000133504718808120172450000011985308625313225637_" gradientUnits="userSpaceOnUse" x1="-174.1103" y1="-608.2238" x2="-174.1103" y2="-655.2277" gradientTransform="matrix(1 0 0 -1 0 -476.6342)">
	<stop offset="0" style="stop-color:#E6E7E8"/>
	<stop offset="1" style="stop-color:#BCBEC0"/>
</linearGradient>
<path style="fill:url(#SVGID_00000133504718808120172450000011985308625313225637_);" d="M-155.1,130.3h-38c-3.3,0-6,2.7-6,6v38  c0,3.3,2.7,6,6,6h38c3.3,0,6-2.7,6-6v-38C-149.1,133-151.7,130.3-155.1,130.3z"/>
<path class="st12" d="M-161.3,141c-0.8-2-6.9,3.1-7.7,4.1c-1.6-0.6-3.3-0.9-5-0.9c-1.7,0-3.4,0.3-5,0.9c-0.8-1-7-6.1-7.7-4.1  c-2,8.3-4.1,29.2,12.8,29.2S-159.3,149.2-161.3,141z"/>
<rect x="-107.5" y="122.5" class="st4" width="85" height="65"/>
<rect x="-105" y="125" class="st3" width="80" height="60"/>
<linearGradient id="SVGID_00000152266075759922885470000006361655027913498261_" gradientUnits="userSpaceOnUse" x1="-65" y1="-605.9857" x2="-65" y2="-656.7501" gradientTransform="matrix(1 0 0 -1 0 -476.6342)">
	<stop offset="0" style="stop-color:#E6E7E8"/>
	<stop offset="1" style="stop-color:#BCBEC0"/>
</linearGradient>
<rect x="-102" y="128" style="fill:url(#SVGID_00000152266075759922885470000006361655027913498261_);" width="74" height="54"/>
<polygon class="st12" points="-50.9,131.8 -47.3,139 -39.2,140.1 -45,145.7 -43.7,153.7 -50.9,149.9 -58.1,153.7 -56.7,145.7   -62.6,140.1 -54.5,139 "/>
<circle class="st12" cx="-87.7" cy="168" r="7.2"/>
<circle class="st12" cx="-65" cy="168" r="7.2"/>
<rect x="-49.9" y="160.7" class="st12" width="14.5" height="14.5"/>
<path class="st12" d="M-73.8,133.2c-0.5-1.4-4.9,2.2-5.5,2.9c-1.1-0.4-2.3-0.7-3.6-0.7c-1.2,0-2.4,0.2-3.6,0.7  c-0.6-0.7-5-4.3-5.5-2.9c-1.4,5.9-2.9,20.7,9,20.7S-72.4,139.1-73.8,133.2z"/>
</svg>